<svg width="687" height="143" fill="none" xmlns="http://www.w3.org/2000/svg"><path d="M1.092 12h2.106V5.552l1.794 4.472H6.76l1.846-4.472V12h2.106V2.38H7.904L5.902 7.398 3.9 2.38H1.092V12zm16.747.13c2.847 0 4.706-1.976 4.706-4.927 0-2.951-1.86-4.953-4.706-4.953-2.834 0-4.693 2.002-4.693 4.953 0 2.951 1.859 4.927 4.693 4.927zm.013-1.794c-1.482 0-2.496-1.235-2.496-3.146 0-1.898 1.014-3.146 2.496-3.146 1.495 0 2.483 1.248 2.483 3.146 0 1.911-.988 3.146-2.483 3.146zm6.729-1.547c.143 2.301 1.456 3.341 4.147 3.341 2.21 0 3.588-1.144 3.588-2.886 0-3.666-5.304-2.392-5.304-4.238 0-.533.35-1.001 1.274-1.001.884 0 1.625.468 1.729 1.469h2.119c-.182-1.963-1.34-3.224-3.926-3.224-2.145 0-3.38 1.248-3.38 2.99 0 3.432 5.29 2.197 5.29 4.16 0 .533-.506.975-1.481.975-1.001 0-1.82-.468-1.95-1.586H24.58zM36.825 12h2.183V4.148h2.822V2.38h-7.84v1.768h2.834V12zm11.198 0h2.184V8.516h.117c.65 0 .806.065 1.807 1.287L53.912 12h2.6l-2.3-2.821c-.417-.507-.586-.715-.833-.884 1.6-.416 2.262-1.404 2.262-2.977 0-1.755-1.26-2.938-3.224-2.938h-4.394V12zm2.184-5.226V4.148h1.86c.831 0 1.364.52 1.364 1.326 0 .793-.442 1.3-1.456 1.3h-1.768zM58.04 12h6.942v-1.768h-4.758V7.918h4.355V6.189h-4.355V4.148h4.628V2.38H58.04V12zm9.293 0h2.184V8.087h4.225V6.358h-4.225v-2.21h4.498V2.38h-6.682V12zm9.026 0h6.941v-1.768h-4.758V7.918h4.356V6.189H78.54V4.148h4.629V2.38h-6.813V12zm9.292 0h2.184V8.516h.117c.65 0 .806.065 1.807 1.287L91.539 12h2.6l-2.301-2.821c-.416-.507-.585-.715-.832-.884 1.599-.416 2.262-1.404 2.262-2.977 0-1.755-1.261-2.938-3.224-2.938H85.65V12zm2.184-5.226V4.148h1.859c.832 0 1.365.52 1.365 1.326 0 .793-.442 1.3-1.456 1.3h-1.768zM95.666 12h6.942v-1.768H97.85V7.918h4.355V6.189H97.85V4.148h4.628V2.38h-6.812V12zm9.332 0h2.08V5.084L110.406 12h2.795V2.38h-2.08v6.773l-3.328-6.773h-2.795V12zm17.339-3.003c-.416.858-1.066 1.339-2.015 1.339-1.508 0-2.47-1.235-2.47-3.146 0-1.95.832-3.146 2.314-3.146 1.092 0 1.729.546 2.08 1.625l1.963-.78c-.689-1.703-1.846-2.639-3.991-2.639-2.886 0-4.576 2.002-4.576 4.966 0 2.938 1.599 4.914 4.667 4.914 2.002 0 3.185-.832 3.939-2.262l-1.911-.871zM126.362 12h6.942v-1.768h-4.758V7.918h4.355V6.189h-4.355V4.148h4.628V2.38h-6.812V12zm9.292 0h3.835c2.73 0 4.589-1.924 4.589-4.797 0-2.86-1.859-4.823-4.589-4.823h-3.835V12zm2.184-1.768V4.148h1.612c1.43 0 2.418 1.222 2.418 3.042 0 1.833-.988 3.042-2.418 3.042h-1.612zM150.044 12h2.353l.624-1.794h3.458l.637 1.794h2.353l-3.601-9.62h-2.223L150.044 12zm3.549-3.549 1.144-3.38 1.17 3.38h-2.314zm7.476-.195c0 2.587 1.625 3.874 4.134 3.874 2.496 0 4.121-1.287 4.121-3.874V2.38h-2.184v5.629c0 1.521-.754 2.223-1.95 2.223-1.157 0-1.937-.702-1.937-2.223V2.38h-2.184v5.876zM174.015 12h2.184V4.148h2.821V2.38h-7.839v1.768h2.834V12zm6.87 0h2.184V7.957h3.926V12h2.184V2.38h-2.184v3.809h-3.926V2.38h-2.184V12zm15.39.13c2.847 0 4.706-1.976 4.706-4.927 0-2.951-1.859-4.953-4.706-4.953-2.834 0-4.693 2.002-4.693 4.953 0 2.951 1.859 4.927 4.693 4.927zm.013-1.794c-1.482 0-2.496-1.235-2.496-3.146 0-1.898 1.014-3.146 2.496-3.146 1.495 0 2.483 1.248 2.483 3.146 0 1.911-.988 3.146-2.483 3.146zM203.38 12h2.184V8.516h.117c.65 0 .806.065 1.807 1.287L209.269 12h2.6l-2.301-2.821c-.416-.507-.585-.715-.832-.884 1.599-.416 2.262-1.404 2.262-2.977 0-1.755-1.261-2.938-3.224-2.938h-4.394V12zm2.184-5.226V4.148h1.859c.832 0 1.365.52 1.365 1.326 0 .793-.442 1.3-1.456 1.3h-1.768zM213.435 12h2.184V2.38h-2.184V12zm6.903 0h2.184V4.148h2.821V2.38h-7.839v1.768h2.834V12zm6.909 0h2.184V2.38h-2.184V12zm4.835 0h6.942v-1.768h-4.758V7.918h4.355V6.189h-4.355V4.148h4.628V2.38h-6.812V12zm8.815-3.211c.143 2.301 1.456 3.341 4.147 3.341 2.21 0 3.588-1.144 3.588-2.886 0-3.666-5.304-2.392-5.304-4.238 0-.533.351-1.001 1.274-1.001.884 0 1.625.468 1.729 1.469h2.119c-.182-1.963-1.339-3.224-3.926-3.224-2.145 0-3.38 1.248-3.38 2.99 0 3.432 5.291 2.197 5.291 4.16 0 .533-.507.975-1.482.975-1.001 0-1.82-.468-1.95-1.586h-2.106zM.882 37.808c.14 2.282 1.526 3.332 4.06 3.332 2.254 0 3.64-1.134 3.64-2.996 0-3.962-5.81-2.198-5.81-4.746 0-.784.49-1.526 1.862-1.526 1.302 0 2.086.644 2.226 1.904h1.596C8.26 31.718 6.958 30.5 4.592 30.5c-2.17 0-3.43 1.232-3.43 3.052 0 3.794 5.796 2.016 5.796 4.732 0 .952-.756 1.484-2.03 1.484-1.274 0-2.31-.504-2.464-1.96H.882zm9.757.952c0 1.68.854 2.38 2.296 2.38.392 0 .7-.056.994-.112v-1.33c-.266.042-.504.07-.728.07-.7 0-1.064-.336-1.064-1.092v-3.934h1.75V33.51h-1.75v-1.932h-1.498v1.932h-1.05v1.232h1.05v4.018zM20.023 41h1.498v-4.634c0-2.002-.966-2.996-3.024-2.996-2.072 0-2.94.966-3.108 2.59h1.442c.098-.98.672-1.4 1.652-1.4 1.022 0 1.54.546 1.54 1.33 0 .532-.154.616-1.274.798-1.54.266-3.724.308-3.724 2.464 0 1.092.77 1.988 2.366 1.988 1.246 0 2.1-.49 2.604-1.19h.028V41zm.014-2.996c0 1.218-.91 1.988-2.184 1.988-.77 0-1.33-.42-1.33-1.078 0-1.288 1.974-1.162 3.514-1.568v.658zm3.74.756c0 1.68.854 2.38 2.296 2.38.392 0 .7-.056.994-.112v-1.33c-.266.042-.504.07-.728.07-.7 0-1.064-.336-1.064-1.092v-3.934h1.75V33.51h-1.75v-1.932h-1.498v1.932h-1.05v1.232h1.05v4.018zm9.628-.322c-.112.966-.812 1.498-1.848 1.498-1.176 0-1.89-.826-1.932-2.45h5.278v-.238c0-2.394-.938-3.878-3.29-3.878-2.338 0-3.5 1.582-3.5 3.892 0 2.324 1.064 3.878 3.514 3.878 1.974 0 3.136-1.134 3.262-2.702h-1.484zm-3.752-1.932c.154-1.316.84-1.96 1.96-1.96 1.148 0 1.764.826 1.806 1.96h-3.766zM41.237 41h6.86v-1.358H42.86v-3.318h4.872V34.98H42.86v-2.982h5.096V30.64h-6.72V41zm9.117 0h1.498v-4.284c0-1.26.77-2.058 1.974-2.058 1.064 0 1.456.63 1.456 1.848V41h1.498v-4.9c0-1.736-.658-2.73-2.45-2.73-1.246 0-1.946.504-2.45 1.316h-.028V33.51h-1.498V41zm13.676-2.562c-.112.966-.812 1.498-1.848 1.498-1.176 0-1.89-.826-1.932-2.45h5.278v-.238c0-2.394-.938-3.878-3.29-3.878-2.338 0-3.5 1.582-3.5 3.892 0 2.324 1.064 3.878 3.514 3.878 1.974 0 3.136-1.134 3.262-2.702H64.03zm-3.752-1.932c.154-1.316.84-1.96 1.96-1.96 1.148 0 1.764.826 1.806 1.96h-3.766zM67.636 41h1.498v-4.102c0-1.274.756-2.03 1.904-2.03.238 0 .476.042.644.098v-1.554a2.28 2.28 0 0 0-.434-.042c-.966 0-1.61.49-2.086 1.302h-.028V33.51h-1.498V41zm9.155-7.49a4.004 4.004 0 0 0-1.022-.14c-1.778 0-2.912 1.106-2.912 2.744 0 .826.294 1.512.798 1.988-.672.336-1.092.84-1.092 1.47 0 .546.308.868.77 1.078-.644.378-.98.84-.98 1.512 0 .966.854 1.708 3.514 1.708 2.996 0 3.794-1.022 3.794-2.156 0-2.926-5.726-1.232-5.726-2.52 0-.224.182-.42.448-.644.392.196.868.308 1.4.308 1.792 0 2.898-1.12 2.898-2.73 0-.602-.168-1.036-.462-1.428h1.414v-1.19h-2.842zm-1.022 4.298c-.938 0-1.526-.602-1.526-1.694s.588-1.694 1.526-1.694c.952 0 1.554.602 1.554 1.694s-.602 1.694-1.554 1.694zm2.45 4.088c0 .602-.616.966-2.198.966-1.792 0-2.394-.378-2.394-.994 0-.252.098-.546.602-.952 1.652.252 3.99-.056 3.99.98zm3.972 1.834h1.596l3.71-10.22H85.93l-1.946 5.782-2.1-5.782h-1.61L83.227 41l-1.036 2.73zm15.592-2.59c2.982 0 4.97-2.128 4.97-5.306s-1.988-5.334-4.97-5.334c-2.968 0-4.956 2.156-4.956 5.334 0 3.178 1.988 5.306 4.956 5.306zm.014-1.386c-1.946 0-3.318-1.554-3.318-3.92 0-2.38 1.372-3.948 3.318-3.948 1.96 0 3.304 1.568 3.304 3.948 0 2.366-1.344 3.92-3.304 3.92zm17.175-7.56c.546 0 .966-.406.966-.952 0-.56-.42-.966-.966-.966-.574 0-.952.406-.952.966 0 .546.378.952.952.952zM114.23 41h1.498v-7.49h-1.498V41zm-9.114.07h1.498v-6.286h3.01v6.286h1.484v-6.286h1.638v-1.232h-1.638v-.672c0-.756.322-1.036 1.008-1.036.196 0 .42.014.686.07v-1.288a3.405 3.405 0 0 0-.952-.126c-1.4 0-2.226.714-2.226 2.38v.672h-3.01v-.672c0-.756.322-1.036 1.008-1.036.196 0 .42.014.672.07v-1.288a3.305 3.305 0 0 0-.938-.126c-1.414 0-2.24.714-2.24 2.38v.672h-.994v1.232h.994v6.286zm17.868-2.828c-.098 1.106-.728 1.666-1.792 1.666-1.288 0-2.002-.896-2.002-2.66 0-1.778.714-2.646 2.002-2.646 1.022 0 1.694.616 1.792 1.694h1.484c-.098-1.876-1.302-2.926-3.262-2.926-2.296 0-3.528 1.582-3.528 3.892 0 2.296 1.148 3.878 3.542 3.878 1.96 0 3.15-1.022 3.248-2.898h-1.484zm8.312.196c-.112.966-.812 1.498-1.848 1.498-1.176 0-1.89-.826-1.932-2.45h5.278v-.238c0-2.394-.938-3.878-3.29-3.878-2.338 0-3.5 1.582-3.5 3.892 0 2.324 1.064 3.878 3.514 3.878 1.974 0 3.136-1.134 3.262-2.702h-1.484zm-3.752-1.932c.154-1.316.84-1.96 1.96-1.96 1.148 0 1.764.826 1.806 1.96h-3.766zM1.274 73.094c0 2.688 1.666 4.046 4.158 4.046 2.492 0 4.158-1.358 4.158-4.046V66.64H7.966v6.328c0 1.862-1.022 2.73-2.534 2.73-1.498 0-2.534-.868-2.534-2.73V66.64H1.274v6.454zm10.841 1.666c0 1.68.854 2.38 2.296 2.38.392 0 .7-.056.994-.112v-1.33c-.266.042-.504.07-.728.07-.7 0-1.064-.336-1.064-1.092v-3.934h1.75V69.51h-1.75v-1.932h-1.498v1.932h-1.05v1.232h1.05v4.018zm5.65-6.566c.545 0 .965-.406.965-.952 0-.56-.42-.966-.966-.966-.574 0-.952.406-.952.966 0 .546.378.952.952.952zM17.021 77h1.498v-7.49h-1.498V77zm3.91 0h1.498V66.64h-1.497V77zm4.653-8.806c.546 0 .966-.406.966-.952 0-.56-.42-.966-.966-.966-.574 0-.952.406-.952.966 0 .546.378.952.952.952zM24.843 77h1.498v-7.49h-1.498V77zm3.952-2.24c0 1.68.854 2.38 2.296 2.38.392 0 .7-.056.994-.112v-1.33c-.266.042-.504.07-.728.07-.7 0-1.064-.336-1.064-1.092v-3.934h1.75V69.51h-1.75v-1.932h-1.498v1.932h-1.05v1.232h1.05v4.018zm5.859 4.97h1.596l3.71-10.22h-1.568l-1.946 5.782-2.1-5.782h-1.61L35.69 77l-1.036 2.73zm18.294-5.418c-.574.91-1.526 1.442-2.674 1.442-1.946 0-3.332-1.554-3.332-3.962 0-2.352 1.204-3.906 3.178-3.906 1.204 0 2.17.546 2.716 1.652l1.4-.728c-.812-1.526-2.212-2.31-4.102-2.31-3.01 0-4.844 2.156-4.844 5.306 0 3.22 1.89 5.334 4.97 5.334 1.848 0 3.192-.756 4.032-2.03l-1.344-.798zm6.22 2.828c2.282 0 3.752-1.554 3.752-3.878s-1.47-3.892-3.753-3.892c-2.282 0-3.738 1.568-3.738 3.892s1.456 3.878 3.738 3.878zm0-1.162c-1.373 0-2.227-1.064-2.227-2.716 0-1.666.854-2.73 2.226-2.73 1.386 0 2.227 1.064 2.227 2.73 0 1.652-.84 2.716-2.227 2.716zM64.805 77h1.498v-4.284c0-1.274.644-2.058 1.736-2.058.966 0 1.288.616 1.288 1.848V77h1.498v-4.396c0-1.302.7-1.946 1.708-1.946.896 0 1.316.574 1.316 1.848V77h1.484v-4.9c0-1.778-.714-2.73-2.352-2.73-1.106 0-1.834.504-2.324 1.386h-.014c-.308-.896-.98-1.386-2.128-1.386-1.12 0-1.736.518-2.184 1.316h-.028V69.51h-1.498V77zm12.92 0h1.498v-4.284c0-1.274.644-2.058 1.736-2.058.966 0 1.288.616 1.288 1.848V77h1.498v-4.396c0-1.302.7-1.946 1.708-1.946.896 0 1.316.574 1.316 1.848V77h1.484v-4.9c0-1.778-.715-2.73-2.353-2.73-1.105 0-1.834.504-2.323 1.386h-.014c-.308-.896-.98-1.386-2.128-1.386-1.12 0-1.737.518-2.185 1.316h-.028V69.51h-1.498V77zm13.661-8.806c.546 0 .966-.406.966-.952 0-.56-.42-.966-.966-.966-.574 0-.952.406-.952.966 0 .546.378.952.952.952zM90.645 77h1.498v-7.49h-1.498V77zm3.393-2.45c.084 1.806 1.246 2.59 3.22 2.59 1.932 0 2.926-.882 2.926-2.24 0-2.94-4.396-1.708-4.396-3.374 0-.504.308-1.008 1.288-1.008.882 0 1.442.42 1.498 1.386h1.456c-.07-1.652-1.134-2.534-2.954-2.534-1.876 0-2.8.98-2.8 2.254 0 2.94 4.41 1.61 4.41 3.374 0 .672-.504 1.008-1.4 1.008-.98 0-1.708-.364-1.792-1.456h-1.456zm7.587 0c.084 1.806 1.246 2.59 3.22 2.59 1.932 0 2.926-.882 2.926-2.24 0-2.94-4.396-1.708-4.396-3.374 0-.504.308-1.008 1.288-1.008.882 0 1.442.42 1.498 1.386h1.456c-.07-1.652-1.134-2.534-2.954-2.534-1.876 0-2.8.98-2.8 2.254 0 2.94 4.41 1.61 4.41 3.374 0 .672-.504 1.008-1.4 1.008-.98 0-1.708-.364-1.792-1.456h-1.456zm8.848-6.356c.546 0 .966-.406.966-.952 0-.56-.42-.966-.966-.966-.574 0-.952.406-.952.966 0 .546.378.952.952.952zM109.731 77h1.498v-7.49h-1.498V77zm7.187.14c2.282 0 3.751-1.554 3.751-3.878s-1.469-3.892-3.751-3.892-3.738 1.568-3.738 3.892 1.456 3.878 3.738 3.878zm0-1.162c-1.372 0-2.226-1.064-2.226-2.716 0-1.666.854-2.73 2.226-2.73 1.386 0 2.226 1.064 2.226 2.73 0 1.652-.84 2.716-2.226 2.716zM122.556 77h1.498v-4.284c0-1.26.77-2.058 1.974-2.058 1.064 0 1.456.63 1.456 1.848V77h1.498v-4.9c0-1.736-.658-2.73-2.45-2.73-1.246 0-1.946.504-2.45 1.316h-.028V69.51h-1.498V77zM1.274 113h6.86v-1.358H2.898v-3.318H7.77v-1.344H2.898v-2.982h5.096v-1.358h-6.72V113zm8.151 0h1.723l1.848-2.772L14.844 113h1.764l-2.633-3.822 2.548-3.668H14.83l-1.82 2.618-1.75-2.618H9.495l2.577 3.696L9.425 113zm13.152-2.562c-.112.966-.812 1.498-1.848 1.498-1.176 0-1.89-.826-1.932-2.45h5.278v-.238c0-2.394-.938-3.878-3.29-3.878-2.338 0-3.5 1.582-3.5 3.892 0 2.324 1.064 3.878 3.514 3.878 1.974 0 3.136-1.134 3.262-2.702h-1.484zm-3.752-1.932c.154-1.316.84-1.96 1.96-1.96 1.148 0 1.764.826 1.806 1.96h-3.766zm12.201 1.736c-.098 1.106-.727 1.666-1.791 1.666-1.288 0-2.002-.896-2.002-2.66 0-1.778.713-2.646 2.002-2.646 1.021 0 1.694.616 1.791 1.694h1.485c-.099-1.876-1.303-2.926-3.263-2.926-2.296 0-3.527 1.582-3.527 3.892 0 2.296 1.148 3.878 3.541 3.878 1.96 0 3.15-1.022 3.248-2.898h-1.483zm3.442.168c0 1.736.658 2.73 2.394 2.73 1.19 0 1.876-.532 2.352-1.344h.028V113h1.498v-7.49h-1.498v4.284c0 1.26-.728 2.058-1.89 2.058-1.022 0-1.386-.63-1.386-1.848v-4.494h-1.498v4.9zm8.723.35c0 1.68.854 2.38 2.296 2.38.392 0 .7-.056.994-.112v-1.33c-.266.042-.504.07-.728.07-.7 0-1.064-.336-1.064-1.092v-3.934h1.75v-1.232h-1.75v-1.932h-1.498v1.932h-1.05v1.232h1.05v4.018zm5.65-6.566c.545 0 .965-.406.965-.952 0-.56-.42-.966-.965-.966-.575 0-.953.406-.953.966 0 .546.379.952.953.952zM48.099 113h1.498v-7.49h-1.498V113zm5.814 0h1.484l2.87-7.49h-1.568l-2.03 5.782-2.016-5.782h-1.61l2.87 7.49zm10.377-2.562c-.112.966-.812 1.498-1.848 1.498-1.176 0-1.89-.826-1.932-2.45h5.278v-.238c0-2.394-.938-3.878-3.29-3.878-2.338 0-3.5 1.582-3.5 3.892 0 2.324 1.064 3.878 3.514 3.878 1.974 0 3.136-1.134 3.262-2.702H64.29zm-3.752-1.932c.154-1.316.84-1.96 1.96-1.96 1.148 0 1.764.826 1.806 1.96h-3.766zM72.122 113h4.718c2.016 0 3.276-1.148 3.276-2.968 0-1.274-.756-2.24-1.918-2.674a2.44 2.44 0 0 0 1.232-2.156c0-1.498-1.064-2.562-2.954-2.562h-4.354V113zm1.624-6.02v-2.996h2.478c1.008 0 1.554.616 1.554 1.47 0 .924-.616 1.526-1.638 1.526h-2.394zm0 4.676v-3.332h2.926c1.022 0 1.792.63 1.792 1.736 0 .952-.658 1.596-1.722 1.596h-2.996zM82.032 113h1.498v-4.102c0-1.274.756-2.03 1.904-2.03.238 0 .476.042.644.098v-1.554a2.28 2.28 0 0 0-.434-.042c-.966 0-1.61.49-2.086 1.302h-.028v-1.162h-1.498V113zm9.7 0h1.498v-4.634c0-2.002-.966-2.996-3.024-2.996-2.072 0-2.94.966-3.108 2.59h1.442c.098-.98.672-1.4 1.652-1.4 1.022 0 1.54.546 1.54 1.33 0 .532-.154.616-1.274.798-1.54.266-3.724.308-3.724 2.464 0 1.092.77 1.988 2.366 1.988 1.246 0 2.1-.49 2.604-1.19h.028V113zm.014-2.996c0 1.218-.91 1.988-2.184 1.988-.77 0-1.33-.42-1.33-1.078 0-1.288 1.974-1.162 3.514-1.568v.658zm3.78 2.996h1.498v-4.284c0-1.26.77-2.058 1.974-2.058 1.064 0 1.456.63 1.456 1.848V113h1.498v-4.9c0-1.736-.658-2.73-2.45-2.73-1.246 0-1.946.504-2.45 1.316h-.028v-1.176h-1.498V113zm13.69-2.758c-.098 1.106-.728 1.666-1.792 1.666-1.288 0-2.002-.896-2.002-2.66 0-1.778.714-2.646 2.002-2.646 1.022 0 1.694.616 1.792 1.694h1.484c-.098-1.876-1.302-2.926-3.262-2.926-2.296 0-3.528 1.582-3.528 3.892 0 2.296 1.148 3.878 3.542 3.878 1.96 0 3.15-1.022 3.248-2.898h-1.484zm3.373 2.758h1.498v-4.284c0-1.26.77-2.058 1.974-2.058 1.064 0 1.456.63 1.456 1.848V113h1.498v-4.9c0-1.736-.658-2.73-2.45-2.73-1.246 0-1.946.504-2.45 1.316h-.028v-4.046h-1.498V113z" fill="#171C26"/><path fill="#B1B4B9" d="M224 23h1v93h-1z"/><path fill="#F0F0F0" d="M225 23h454v23H225z"/><path fill="#171C26" d="M225 23h114v23H225zM345.302 41.156h5.894v-1.288h-2.016v-9.072h-1.218l-3.29 2.184.686 1.092 2.254-1.442v7.238h-2.31v1.288zm7.141-2.352h4.452v2.352h1.554v-2.352h1.498v-1.302h-1.498v-6.706h-1.764l-4.242 6.58v1.428zm1.302-1.302 3.15-4.844v4.844h-3.15z"/><path fill="#F0F0F0" d="M225 58h454v23H225z"/><path fill="#171C26" d="M225 58h82v23h-82zM313.302 76.156h5.894v-1.288h-2.016v-9.072h-1.218l-3.29 2.184.686 1.092 2.254-1.442v7.238h-2.31v1.288zm10.907.14c2.03 0 3.668-1.54 3.668-5.32 0-3.78-1.638-5.32-3.668-5.32-2.044 0-3.668 1.54-3.668 5.32 0 3.78 1.624 5.32 3.668 5.32zm0-1.274c-1.106 0-2.086-.868-2.086-4.046 0-3.178.98-4.046 2.086-4.046 1.092 0 2.086.868 2.086 4.046 0 3.178-.994 4.046-2.086 4.046z"/><path fill="#F0F0F0" d="M225 93h454v23H225z"/><path fill="#171C26" d="M225 93h82v23h-82zM313.302 111.156h5.894v-1.288h-2.016v-9.072h-1.218l-3.29 2.184.686 1.092 2.254-1.442v7.238h-2.31v1.288zm10.907.14c2.03 0 3.668-1.54 3.668-5.32 0-3.78-1.638-5.32-3.668-5.32-2.044 0-3.668 1.54-3.668 5.32 0 3.78 1.624 5.32 3.668 5.32zm0-1.274c-1.106 0-2.086-.868-2.086-4.046 0-3.178.98-4.046 2.086-4.046 1.092 0 2.086.868 2.086 4.046 0 3.178-.994 4.046-2.086 4.046z"/><path fill="#B1B4B9" d="M679 23h1v93h-1zM224 116h1v8h-1z"/><path d="M224.506 142.13c1.885 0 3.406-1.43 3.406-4.94 0-3.51-1.521-4.94-3.406-4.94-1.898 0-3.406 1.43-3.406 4.94 0 3.51 1.508 4.94 3.406 4.94zm0-1.183c-1.027 0-1.937-.806-1.937-3.757s.91-3.757 1.937-3.757c1.014 0 1.937.806 1.937 3.757s-.923 3.757-1.937 3.757z" fill="#7E8694"/><path fill="#B1B4B9" d="M679 116h1v8h-1z"/><path d="M672.245 139.01c.117 2.197 1.43 3.12 3.419 3.12 2.041 0 3.38-1.196 3.38-3.146s-1.274-3.081-3.224-3.081c-.442 0-.949.104-1.352.247l.585-2.574h3.796v-1.196h-4.81l-1.131 5.278.299.039a4.573 4.573 0 0 1 2.327-.676c1.339 0 2.067.793 2.067 1.989 0 1.235-.767 1.95-1.911 1.95-1.001 0-1.911-.481-2.041-1.95h-1.404zm7.554 0c.117 2.197 1.43 3.12 3.419 3.12 2.041 0 3.38-1.196 3.38-3.146s-1.274-3.081-3.224-3.081c-.442 0-.949.104-1.352.247l.585-2.574h3.796v-1.196h-4.81l-1.131 5.278.299.039a4.573 4.573 0 0 1 2.327-.676c1.339 0 2.067.793 2.067 1.989 0 1.235-.767 1.95-1.911 1.95-1.001 0-1.911-.481-2.041-1.95h-1.404z" fill="#7E8694"/></svg>