<svg width="189" height="26" viewBox="0 0 189 26" fill="none" xmlns="http://www.w3.org/2000/svg">
<path d="M14.7128 3.62832C15.4973 3.71457 16.4573 4.14282 16.893 4.14282C17.0678 4.14282 17.3295 4.31457 17.3295 5.00007C17.3295 5.60007 17.5035 6.80007 17.5035 7.48557C17.5035 8.08557 17.3295 8.42832 17.0678 8.42832C16.893 8.42832 16.719 8.08557 16.6313 7.65732C16.3695 6.62832 15.846 5.85732 15.4103 5.51457C13.8398 4.31457 12.3563 4.05732 10.7865 4.05732C6.1628 4.05732 3.19655 7.82832 3.19655 12.1146C3.19655 14.0001 3.5453 15.5428 4.2428 16.7428C5.8133 20.0001 9.2153 21.2856 11.571 21.2856C12.0945 21.2856 13.491 21.2001 14.712 20.5146C16.0208 19.8283 16.7183 18.9718 17.4165 17.7718C17.7653 17.1718 17.94 17.0001 18.027 17.0001C18.2895 17.0001 18.3765 17.6001 18.2895 17.9428C18.2018 18.6283 17.5035 20.1718 17.1548 20.7718C17.0678 21.0283 16.5443 21.3718 16.2825 21.5428C15.846 21.7146 13.491 22.3146 11.0475 22.3146C6.9473 22.3146 3.9818 20.3428 2.84705 18.9718C1.71305 17.6856 0.404297 15.7146 0.404297 12.4573C0.404297 9.20007 2.3243 6.62832 3.5453 5.68557C5.98805 3.71457 8.69255 3.11457 11.3093 3.11457C12.2693 3.20007 13.5788 3.37182 14.7128 3.62832ZM30.5025 3.71457C30.6773 3.80007 30.8513 4.22832 30.8513 4.22832C30.939 4.74282 31.1138 6.37182 31.1138 6.54282C31.1138 7.05732 31.1138 7.31457 30.939 7.31457C30.771 7.31196 30.6091 7.25048 30.4817 7.14085C30.3542 7.03123 30.2692 6.88038 30.2415 6.71457C29.892 5.68557 29.1068 4.82832 28.845 4.65732C28.3215 4.22832 27.624 3.97182 26.8388 3.97182C24.9188 3.97182 23.5238 5.42832 23.5238 7.31457C23.5238 9.28557 25.0065 10.2283 27.5363 11.8573C29.7173 13.3146 31.5495 14.7718 31.5495 17.3428C31.5495 18.8001 30.7643 20.3428 29.1945 21.3711C28.2345 21.9711 26.577 22.4001 25.2683 22.4001C24.3083 22.4001 22.389 22.0573 21.5168 21.6283C21.255 21.4573 20.8193 20.8573 20.8193 20.6856C20.6445 19.7428 20.3828 18.4573 20.3828 18.0283C20.3828 17.9428 20.6445 17.5146 20.8185 17.5146C21.081 17.5146 21.5168 18.2856 21.8655 19.1428C22.6508 20.6856 24.483 21.3711 25.617 21.3711C27.624 21.3711 29.1068 20.0001 29.1068 17.9436C29.1068 16.7436 28.4963 15.4573 25.5293 13.5711C23.088 12.0291 21.3428 10.4001 21.3428 8.00007C21.3428 6.62832 21.954 5.42832 22.9133 4.57182C23.7855 3.79932 25.182 3.19932 27.1883 3.19932C28.497 3.19932 30.0668 3.62832 30.5025 3.71457ZM36.6968 6.45732C36.6098 5.17182 36.6098 4.74282 35.0393 4.48557C34.4288 4.40007 34.254 4.14282 34.254 3.97182C34.254 3.71457 34.6028 3.62907 34.9515 3.62907C35.7375 3.62907 37.1333 3.71457 38.0925 3.71457C39.4883 3.71457 40.1865 3.62907 41.1465 3.62907C41.5823 3.62907 41.844 3.71457 41.844 3.97182C41.844 4.22907 41.5823 4.40007 41.0588 4.48557C39.4013 4.82907 39.4013 5.51457 39.3143 6.28557C39.2265 7.14282 39.2265 9.02907 39.2265 14.6001C39.2265 16.1428 39.2265 17.9428 39.3143 18.8001C39.4013 20.3428 39.576 20.8573 41.4075 21.2001C41.931 21.2856 42.1928 21.4573 42.1928 21.7146C42.1928 21.9718 41.757 22.0573 41.4075 22.0573C39.9248 22.0573 37.9185 21.8856 37.1325 21.8856C36.2603 21.8856 35.9985 21.9718 34.9523 21.9718C34.4288 21.9718 34.167 21.8001 34.167 21.5428C34.167 21.3718 34.4288 21.2001 35.0393 21.0291C36.522 20.6856 36.6098 20.2573 36.6968 18.9718C36.7838 17.9428 36.8715 15.0291 36.8715 12.6291C36.7838 10.9146 36.7838 7.40007 36.6968 6.45732ZM54.4073 3.71457C54.5813 3.80007 54.756 4.22832 54.756 4.22832C54.843 4.74282 55.0178 6.37182 55.0178 6.54282C55.0178 7.05732 55.0178 7.31457 54.843 7.31457C54.675 7.31196 54.5131 7.25048 54.3857 7.14085C54.2582 7.03123 54.1732 6.88038 54.1455 6.71457C53.796 5.68557 53.0108 4.82832 52.749 4.65732C52.2255 4.22832 51.528 3.97182 50.7428 3.97182C48.8228 3.97182 47.4278 5.42832 47.4278 7.31457C47.4278 9.28557 48.9105 10.2283 51.4403 11.8573C53.622 13.3146 55.4535 14.7718 55.4535 17.3428C55.4535 18.8001 54.669 20.3428 53.0985 21.3711C52.1385 21.9711 50.481 22.4001 49.1723 22.4001C48.2123 22.4001 46.2938 22.0573 45.4208 21.6283C45.159 21.4573 44.7233 20.8573 44.7233 20.6856C44.5485 19.7428 44.2868 18.4573 44.2868 18.0283C44.2868 17.9428 44.5493 17.5146 44.7233 17.5146C44.985 17.5146 45.4208 18.2856 45.7703 19.1428C46.5555 20.6856 48.3878 21.3711 49.5218 21.3711C51.528 21.3711 53.0108 20.0001 53.0108 17.9436C53.0108 16.7436 52.4003 15.4573 49.434 13.5711C46.9913 12.0283 45.2468 10.4001 45.2468 8.00007C45.2468 6.62832 45.8573 5.42832 46.8165 4.57182C47.6895 3.79932 49.0853 3.19932 51.0915 3.19932C52.4003 3.19932 53.9715 3.62832 54.4073 3.71457ZM65.8358 25.3146V0.45732C65.8358 0.20007 66.0098 0.0283203 66.2715 0.0283203C66.534 0.0283203 66.708 0.20007 66.708 0.45732V25.3146C66.708 25.5718 66.5333 25.7428 66.2715 25.7428C66.0975 25.7428 65.8358 25.5718 65.8358 25.3146ZM79.881 11.0856C78.4853 11.0856 77.3513 10.3146 77.3513 8.17182C77.3513 6.37182 78.4853 5.34282 79.881 5.34282H81.5393C81.6263 5.34282 81.6263 5.34282 81.6263 5.42907L81.5393 6.02907C81.5393 6.11457 81.4515 6.11457 81.3645 6.11457C80.841 5.94282 80.6663 5.85732 79.794 5.85732C78.9218 5.85732 78.4853 6.71457 78.4853 8.25732C78.4853 10.1428 79.2705 10.6573 80.1428 10.6573C80.5793 10.6573 81.0158 10.4001 81.3645 10.0573H81.4515L81.7133 10.3146V10.4001C81.2775 10.8291 80.5793 11.0856 79.881 11.0856ZM86.7735 11.0001H83.1968C83.109 11.0001 83.109 11.0001 83.109 10.9146V5.42907C83.109 5.34282 83.109 5.34282 83.1968 5.34282H86.6865C86.7735 5.34282 86.8605 5.34282 86.8605 5.42907V5.85657C86.8605 5.94282 86.7735 5.94282 86.6865 5.94282C86.6865 5.94282 85.6395 5.77182 85.203 5.77182H84.4178C84.3308 5.77182 84.156 5.85732 84.156 6.02907V7.74282C84.156 7.74282 84.156 7.82832 84.2438 7.82832L85.9883 7.74282C86.0753 7.74282 86.0753 7.74282 86.0753 7.82832V8.25732C86.0753 8.34282 85.9883 8.34282 85.9883 8.34282L84.2438 8.25732C84.2438 8.25732 84.156 8.25732 84.156 8.34282V10.3146C84.156 10.4001 84.2438 10.5718 84.4178 10.5718H85.203C85.7265 10.5718 86.8605 10.4001 86.8605 10.4001C86.9483 10.4001 87.0353 10.4001 87.0353 10.4856V11.0001H86.7735ZM92.8808 9.45732V11.0001C92.8808 11.1718 92.3573 11.1718 92.3573 11.0856L89.3033 6.97182C89.2163 6.88557 89.2163 6.97182 89.2163 6.97182L89.3033 10.8291C89.3033 10.9146 89.3033 11.0001 89.2163 11.0001H88.518C88.431 11.0001 88.431 10.9146 88.431 10.8283L88.518 6.80082V5.42757C88.518 5.34207 88.518 5.34207 88.6058 5.34207H89.1293C89.2163 5.34207 89.3033 5.34207 89.3033 5.42832L92.0078 9.11382C92.0955 9.19932 92.1825 9.19932 92.1825 9.11382L92.0955 5.59932C92.0955 5.51382 92.0955 5.42832 92.1825 5.42832H92.793C92.8808 5.42832 92.8808 5.51382 92.8808 5.59932V9.45732ZM98.8125 5.85732C98.8125 5.94282 98.7255 5.94282 98.7255 5.94282C98.7255 5.94282 97.7655 5.85732 97.242 5.85732C97.155 5.85732 97.068 5.94282 97.068 6.02907V11.0001C97.068 11.0856 97.068 11.0856 96.981 11.0856H96.108C96.021 11.0856 96.021 11.0856 96.021 11.0001V6.02907C96.021 5.94282 95.934 5.85657 95.8463 5.85657C95.3228 5.85657 94.3635 5.94282 94.3635 5.94282C94.2765 5.94282 94.2765 5.94282 94.2765 5.85732V5.42907C94.2765 5.34282 94.3635 5.34282 94.4505 5.34282H98.7255C98.8125 5.34282 98.9003 5.34282 98.9003 5.42907L98.8125 5.85732ZM103.873 11.0001H100.296C100.208 11.0001 100.208 11.0001 100.208 10.9146V5.42907C100.208 5.34282 100.208 5.34282 100.296 5.34282H103.786C103.873 5.34282 103.96 5.34282 103.96 5.42907V5.85657C103.96 5.94282 103.873 5.94282 103.786 5.94282C103.786 5.94282 102.739 5.77182 102.302 5.77182H101.517C101.43 5.77182 101.255 5.85732 101.255 6.02907V7.74282C101.255 7.74282 101.255 7.82832 101.343 7.82832L103.088 7.74282C103.175 7.74282 103.175 7.74282 103.175 7.82832V8.25732C103.175 8.34282 103.088 8.34282 103.088 8.34282L101.343 8.25732C101.343 8.25732 101.255 8.25732 101.255 8.34282V10.3146C101.255 10.4001 101.343 10.5718 101.517 10.5718H102.302C102.826 10.5718 103.96 10.4001 103.96 10.4001C104.047 10.4001 104.135 10.4001 104.135 10.4856V11.0001H103.873ZM109.979 11.0001H108.933C108.845 11.0001 108.845 10.9146 108.758 10.9146L107.537 8.77182C107.363 8.51457 107.188 8.42907 107.014 8.42907H106.664C106.577 8.42907 106.49 8.51457 106.49 8.60007V11.0001C106.49 11.0856 106.49 11.0856 106.403 11.0856H105.53C105.443 11.0856 105.443 11.0856 105.443 11.0001V5.51457C105.443 5.42907 105.443 5.42907 105.53 5.42907H108.06C108.933 5.42907 109.631 6.02907 109.631 6.80007C109.631 7.57182 109.02 8.17182 108.235 8.34282C108.148 8.34282 108.148 8.42832 108.235 8.42832C108.322 8.51457 108.41 8.60082 108.584 8.85732L109.892 10.6573L110.154 11.0001H109.979ZM107.363 5.68557H106.752C106.664 5.68557 106.49 5.77182 106.49 5.94282V7.82832C106.49 7.91457 106.577 8.00082 106.664 8.00082H107.014C107.886 8.00082 108.41 7.65732 108.41 6.80082C108.41 6.11457 107.973 5.68557 107.363 5.68557ZM117.744 5.94282C117.744 5.94282 116.61 5.77182 116.261 5.77182H115.563C115.476 5.77182 115.301 5.85732 115.301 6.02907V7.74282C115.301 7.74282 115.301 7.82832 115.388 7.82832L117.046 7.74282C117.134 7.74282 117.134 7.74282 117.134 7.82832V8.25732C117.134 8.34282 117.046 8.34282 117.046 8.34282L115.388 8.25732C115.388 8.25732 115.301 8.25732 115.301 8.34282V10.9146C115.301 11.0001 115.301 11.0001 115.214 11.0001H114.341C114.254 11.0001 114.254 11.0001 114.254 10.9146V5.42907C114.254 5.34282 114.254 5.34282 114.341 5.34282H117.744C117.831 5.34282 117.919 5.34282 117.919 5.42907V5.85657C117.919 5.94282 117.831 5.94282 117.744 5.94282ZM121.321 11.1718C119.402 11.1718 118.791 9.71457 118.791 8.17182C118.791 6.62907 119.402 5.17182 121.321 5.17182C123.24 5.17182 123.851 6.62907 123.851 8.17182C123.851 9.62907 123.24 11.1718 121.321 11.1718ZM121.321 5.60007C120.187 5.60007 120.013 6.97182 120.013 8.08557C120.013 9.11457 120.1 10.8283 121.409 10.8283C122.543 10.8283 122.717 9.45732 122.717 8.34282C122.717 7.22832 122.63 5.60007 121.321 5.60007ZM130.046 11.0001H128.999C128.912 11.0001 128.912 10.9146 128.824 10.9146L127.603 8.77182C127.428 8.51457 127.253 8.42907 127.079 8.42907H126.73C126.643 8.42907 126.556 8.51457 126.556 8.60007V11.0001C126.556 11.0856 126.556 11.0856 126.469 11.0856H125.596C125.509 11.0856 125.509 11.0856 125.509 11.0001V5.51457C125.509 5.42907 125.509 5.42907 125.596 5.42907H128.126C128.999 5.42907 129.696 6.02907 129.696 6.80007C129.696 7.57182 129.086 8.17182 128.3 8.34282C128.213 8.34282 128.213 8.42832 128.3 8.42832C128.388 8.51457 128.475 8.60082 128.65 8.85732L129.958 10.6573L130.22 11.0001H130.046ZM127.428 5.68557H126.818C126.73 5.68557 126.556 5.77182 126.556 5.94282V7.82832C126.556 7.91457 126.643 8.00082 126.73 8.00082H127.079C127.952 8.00082 128.475 7.65732 128.475 6.80082C128.475 6.11457 128.039 5.68557 127.428 5.68557ZM136.152 11.0856C135.28 11.0856 134.669 10.9146 134.146 10.6573C134.059 10.6573 134.059 10.5718 134.059 10.4856L134.233 9.88557C134.233 9.80007 134.32 9.80007 134.408 9.88557C134.843 10.3146 135.455 10.6573 136.152 10.6573C136.676 10.6573 137.286 10.2291 137.286 9.71457C137.286 8.25732 134.059 8.85732 134.059 6.71457C134.059 5.77182 134.756 5.17182 135.803 5.17182C136.676 5.17182 137.374 5.34282 137.81 5.34282C137.897 5.34282 137.897 5.42907 137.897 5.42907L137.723 6.02907C137.723 6.11457 137.636 6.11457 137.548 6.11457C137.112 5.85732 136.676 5.60007 135.803 5.60007C135.367 5.60007 134.931 5.85732 134.931 6.37182C134.931 7.91457 138.159 7.14282 138.159 9.54282C138.246 10.6573 137.286 11.0856 136.152 11.0856ZM143.83 5.85732C143.83 5.94282 143.742 5.94282 143.742 5.94282C143.742 5.94282 142.783 5.85732 142.259 5.85732C142.172 5.85732 142.085 5.94282 142.085 6.02907V11.0001C142.085 11.0856 142.085 11.0856 141.998 11.0856H141.125C141.038 11.0856 141.038 11.0856 141.038 11.0001V6.02907C141.038 5.94282 140.951 5.85657 140.864 5.85657C140.34 5.85657 139.38 5.94282 139.38 5.94282C139.293 5.94282 139.293 5.94282 139.293 5.85732V5.42907C139.293 5.34282 139.38 5.34282 139.468 5.34282H143.742C143.83 5.34282 143.917 5.34282 143.917 5.42907L143.83 5.85732ZM149.762 11.0001H148.715C148.628 11.0001 148.628 10.9146 148.541 10.9146L147.319 8.77182C147.145 8.51457 146.97 8.42907 146.795 8.42907H146.447C146.36 8.42907 146.273 8.51457 146.273 8.60007V11.0001C146.273 11.0856 146.273 11.0856 146.185 11.0856H145.313C145.226 11.0856 145.226 11.0856 145.226 11.0001V5.51457C145.226 5.42907 145.226 5.42907 145.313 5.42907H147.842C148.715 5.42907 149.413 6.02907 149.413 6.80007C149.413 7.57182 148.802 8.17182 148.017 8.34282C147.93 8.34282 147.93 8.42832 148.017 8.42832C148.104 8.51457 148.192 8.60082 148.366 8.85732L149.675 10.6573L149.936 11.0001H149.762ZM147.145 5.68557H146.534C146.447 5.68557 146.273 5.77182 146.273 5.94282V7.82832C146.273 7.91457 146.36 8.00082 146.447 8.00082H146.795C147.668 8.00082 148.192 7.65732 148.192 6.80082C148.192 6.11457 147.755 5.68557 147.145 5.68557ZM156.131 11.0001H155.084C154.997 11.0001 154.909 11.0001 154.909 10.9146C154.909 10.9146 154.735 10.4856 154.647 10.2291L154.298 9.45657C154.298 9.37182 154.211 9.37182 154.211 9.37182H152.379C152.292 9.37182 152.292 9.37182 152.292 9.45732L151.856 10.9146C151.856 11.0001 151.769 11.0001 151.681 11.0001H150.983C150.896 11.0001 150.896 10.9146 150.896 10.8283L153.077 5.34282C153.077 5.25732 153.775 5.25732 153.775 5.34282L155.782 10.2283C155.869 10.4856 156.131 10.8283 156.131 10.8283C156.218 11.0008 156.218 11.0001 156.131 11.0001ZM153.339 6.80007C153.339 6.71457 153.251 6.71457 153.251 6.80007L152.466 8.94282C152.466 9.02832 152.466 9.02832 152.554 9.02832H154.037C154.124 9.02832 154.124 8.94282 154.124 8.94282L153.339 6.80007ZM160.929 5.85732C160.929 5.94282 160.841 5.94282 160.841 5.94282C160.841 5.94282 159.882 5.85732 159.359 5.85732C159.271 5.85732 159.184 5.94282 159.184 6.02907V11.0001C159.184 11.0856 159.184 11.0856 159.097 11.0856H158.225C158.137 11.0856 158.137 11.0856 158.137 11.0001V6.02907C158.137 5.94282 158.05 5.85657 157.963 5.85657C157.439 5.85657 156.479 5.94282 156.479 5.94282C156.392 5.94282 156.392 5.94282 156.392 5.85732V5.42907C156.392 5.34282 156.479 5.34282 156.566 5.34282H160.841C160.929 5.34282 161.016 5.34282 161.016 5.42907L160.929 5.85732ZM166.076 11.0001H162.499C162.412 11.0001 162.412 11.0001 162.412 10.9146V5.42907C162.412 5.34282 162.412 5.34282 162.499 5.34282H165.989C166.076 5.34282 166.163 5.34282 166.163 5.42907V5.85657C166.163 5.94282 166.076 5.94282 165.989 5.94282C165.989 5.94282 164.942 5.77182 164.506 5.77182H163.721C163.633 5.77182 163.459 5.85732 163.459 6.02907V7.74282C163.459 7.74282 163.459 7.82832 163.546 7.82832L165.291 7.74282C165.378 7.74282 165.378 7.74282 165.378 7.82832V8.25732C165.378 8.34282 165.291 8.34282 165.291 8.34282L163.546 8.25732C163.546 8.25732 163.459 8.25732 163.459 8.34282V10.3146C163.459 10.4001 163.546 10.5718 163.721 10.5718H164.506C165.029 10.5718 166.163 10.4001 166.163 10.4001C166.25 10.4001 166.337 10.4001 166.337 10.4856V11.0001H166.076ZM171.834 11.0001C171.747 11.0001 171.485 10.7428 171.485 10.7428H171.311C170.848 10.967 170.341 11.0842 169.827 11.0856C168.431 11.0856 167.297 10.3146 167.297 8.17182C167.297 6.37182 168.431 5.34282 169.827 5.34282H171.485C171.572 5.34282 171.572 5.34282 171.572 5.42907L171.485 6.02907C171.485 6.11457 171.398 6.11457 171.311 6.11457C170.787 5.94282 170.612 5.85732 169.74 5.85732C168.868 5.85732 168.431 6.71457 168.431 8.25732C168.431 10.1428 169.217 10.7428 170.089 10.7428C170.438 10.7428 170.962 10.4856 170.962 10.1428C170.962 10.0573 170.874 8.60007 170.874 8.60007V8.34282C170.874 8.25732 170.962 8.17182 170.962 8.17182H171.834C171.834 8.17182 171.921 8.17182 171.921 8.25732V11.0001H171.834ZM174.626 11.0001H173.753C173.666 11.0001 173.666 11.0001 173.666 10.9146V5.42907C173.666 5.34282 173.666 5.34282 173.753 5.34282H174.626C174.713 5.34282 174.713 5.34282 174.713 5.42907V10.9146C174.713 11.0001 174.713 11.0001 174.626 11.0001ZM178.901 11.0856C177.505 11.0856 176.37 10.3146 176.37 8.17182C176.37 6.37182 177.505 5.34282 178.901 5.34282H180.558C180.645 5.34282 180.645 5.34282 180.645 5.42907L180.558 6.02907C180.558 6.11457 180.471 6.11457 180.383 6.11457C179.86 5.94282 179.686 5.85732 178.813 5.85732C177.941 5.85732 177.505 6.71457 177.505 8.25732C177.505 10.1428 178.289 10.6573 179.162 10.6573C179.598 10.6573 180.035 10.4001 180.383 10.0573H180.471L180.732 10.3146V10.4001C180.296 10.8291 179.598 11.0856 178.901 11.0856ZM188.235 8.77182H187.538V10.9146C187.538 11.0001 187.45 11.0001 187.45 11.0001H185.269C184.223 11.0001 183.699 10.3146 183.699 9.71457C183.699 9.11457 184.135 8.60007 184.833 8.42907C184.628 8.34643 184.451 8.20439 184.327 8.0211C184.203 7.8378 184.136 7.62158 184.135 7.40007C184.135 6.62907 184.746 6.20007 185.618 6.20007H186.491C186.578 6.20007 186.665 6.20007 186.665 6.28557V6.62907C186.665 6.71457 186.578 6.71457 186.578 6.71457C186.578 6.71457 186.229 6.54282 186.054 6.54282C185.618 6.54282 185.269 6.80007 185.269 7.40007C185.269 7.91457 185.618 8.34282 186.142 8.34282H186.839V7.74282C186.839 7.65732 186.927 7.65732 186.927 7.65732L187.625 7.74282C187.712 7.74282 187.712 7.74282 187.712 7.82907V8.34282H188.41C188.497 8.34282 188.497 8.34282 188.497 8.42907V8.68557C188.323 8.68557 188.323 8.77182 188.235 8.77182ZM186.665 8.68557H185.792C185.182 8.68557 184.92 9.11457 184.92 9.62907C184.92 10.1428 185.269 10.6573 185.705 10.6573C186.142 10.6573 186.404 10.6573 186.665 10.5718V8.68557ZM78.4853 22.0573H77.613C77.526 22.0573 77.526 22.0573 77.526 21.9718V16.4856C77.526 16.4001 77.526 16.4001 77.613 16.4001H78.4853C78.573 16.4001 78.573 16.4001 78.573 16.4856V19.2283L78.4853 22.0573C78.573 22.0573 78.573 22.0573 78.4853 22.0573ZM84.8543 20.5146V22.0573C84.8543 22.2291 84.3308 22.2291 84.3308 22.1428L81.2775 18.0291C81.1898 17.9428 81.1898 18.0291 81.1898 18.0291L81.2775 21.8856C81.2775 21.9718 81.2775 22.0573 81.1898 22.0573H80.4923C80.4045 22.0573 80.4045 21.9718 80.4045 21.8856L80.4923 17.8573V16.4856C80.4923 16.4001 80.4923 16.4001 80.5793 16.4001H81.1028C81.1898 16.4001 81.2775 16.4001 81.2775 16.4856L83.982 20.1718C84.069 20.2573 84.156 20.2573 84.156 20.1718L84.069 16.6573C84.069 16.5718 84.069 16.4856 84.156 16.4856H84.7673C84.8543 16.4856 84.8543 16.5718 84.8543 16.6573V20.5146ZM90.7868 16.9146C90.699 17.0001 90.7868 17.0001 90.7868 16.9146C90.699 17.0001 89.7398 16.9146 89.2163 16.9146C89.1293 16.9146 89.0415 17.0001 89.0415 17.0856V22.0573C89.0415 22.1428 89.0415 22.1428 88.9545 22.1428H88.0823C87.9945 22.1428 87.9945 22.1428 87.9945 22.0573V17.0856C87.9945 17.0001 87.9075 16.9146 87.8205 16.9146C87.297 16.9146 86.337 17.0001 86.337 17.0001C86.25 17.0001 86.25 17.0001 86.25 16.9146V16.4856C86.25 16.4001 86.337 16.4001 86.4248 16.4001H90.699C90.7868 16.4001 90.8738 16.4001 90.8738 16.4856L90.7868 16.9146ZM95.934 22.0573H92.3565C92.2695 22.0573 92.2695 22.0573 92.2695 21.9718V16.4856C92.2695 16.4001 92.2695 16.4001 92.3565 16.4001H95.8463C95.934 16.4001 96.021 16.4001 96.021 16.4856V16.9146C96.021 17.0001 95.934 17.0001 95.8463 17.0001C95.8463 17.0001 94.7993 16.8283 94.3635 16.8283H93.5783C93.4913 16.8283 93.3165 16.9146 93.3165 17.0856V18.8001C93.3165 18.8001 93.3165 18.8856 93.4035 18.8856L95.1488 18.8001C95.2358 18.8001 95.2358 18.8001 95.2358 18.8856V19.3146C95.2358 19.4001 95.1488 19.4001 95.1488 19.4001L93.4035 19.3146C93.4035 19.3146 93.3165 19.3146 93.3165 19.4001V21.3718C93.3165 21.4573 93.4035 21.6291 93.5783 21.6291H94.3635C94.887 21.6291 96.021 21.4566 96.021 21.4566C96.108 21.4566 96.195 21.4566 96.195 21.5428V22.0573H95.934ZM102.041 22.0573H100.994C100.907 22.0573 100.907 21.9718 100.82 21.9718L99.5978 19.8283C99.423 19.5718 99.249 19.4856 99.0743 19.4856H98.7255C98.6385 19.4856 98.5508 19.5718 98.5508 19.6573V22.0573C98.5508 22.1428 98.5508 22.1428 98.4638 22.1428H97.5915C97.5038 22.1428 97.5038 22.1428 97.5038 22.0573V16.5718C97.5038 16.4856 97.5038 16.4856 97.5915 16.4856H100.121C100.994 16.4856 101.692 17.0856 101.692 17.8573C101.692 18.6283 101.081 19.2283 100.296 19.4001C100.208 19.4001 100.208 19.4856 100.296 19.4856C100.383 19.5718 100.47 19.6573 100.645 19.9146L101.954 21.7146L102.215 22.0573C102.128 21.9718 102.041 22.0573 102.041 22.0573ZM99.423 16.7428H98.8125C98.7255 16.7428 98.5508 16.8283 98.5508 17.0001V18.8856C98.5508 18.9718 98.6385 19.0573 98.7255 19.0573H99.0743C99.9465 19.0573 100.47 18.7146 100.47 17.8573C100.383 17.1718 100.034 16.7428 99.423 16.7428ZM107.973 20.5146V22.0573C107.973 22.2291 107.45 22.2291 107.45 22.1428L104.396 18.0291C104.309 17.9428 104.309 18.0291 104.309 18.0291L104.396 21.8856C104.396 21.9718 104.396 22.0573 104.309 22.0573H103.611C103.524 22.0573 103.524 21.9718 103.524 21.8856L103.611 17.8573V16.4856C103.611 16.4001 103.611 16.4001 103.699 16.4001H104.222C104.309 16.4001 104.396 16.4001 104.396 16.4856L107.101 20.1718C107.189 20.2573 107.276 20.2573 107.276 20.1718L107.188 16.6573C107.188 16.5718 107.188 16.4856 107.276 16.4856H107.886C107.973 16.4856 107.973 16.5718 107.973 16.6573V20.5146ZM114.429 22.0573H113.382C113.295 22.0573 113.208 22.0573 113.208 21.9718C113.208 21.9718 113.033 21.5428 112.946 21.2856L112.597 20.5146C112.597 20.4291 112.51 20.4291 112.51 20.4291H110.678C110.591 20.4291 110.591 20.4291 110.591 20.5146L110.154 21.9718C110.154 22.0573 110.067 22.0573 109.98 22.0573H109.282C109.195 22.0573 109.195 21.9718 109.195 21.8856L111.376 16.4001C111.376 16.3146 112.073 16.3146 112.073 16.4001L114.08 21.2856C114.167 21.5428 114.429 21.8856 114.429 21.8856C114.604 22.0573 114.516 22.0573 114.429 22.0573ZM111.725 17.8573C111.725 17.7718 111.638 17.7718 111.638 17.8573L110.852 20.0001C110.852 20.0856 110.852 20.0856 110.939 20.0856H112.423C112.51 20.0856 112.51 20.0001 112.51 20.0001L111.725 17.8573ZM119.315 16.9146C119.315 17.0001 119.228 17.0001 119.228 17.0001C119.228 17.0001 118.268 16.9146 117.744 16.9146C117.657 16.9146 117.57 17.0001 117.57 17.0856V22.0573C117.57 22.1428 117.57 22.1428 117.482 22.1428H116.61C116.523 22.1428 116.523 22.1428 116.523 22.0573V17.0856C116.523 17.0001 116.435 16.9146 116.348 16.9146C115.825 16.9146 114.866 17.0001 114.866 17.0001C114.778 17.0001 114.778 17.0001 114.778 16.9146V16.4856C114.778 16.4001 114.866 16.4001 114.953 16.4001H119.228C119.315 16.4001 119.402 16.4001 119.402 16.4856L119.315 16.9146ZM121.67 22.0573H120.798C120.71 22.0573 120.71 22.0573 120.71 21.9718V16.4856C120.71 16.4001 120.71 16.4001 120.798 16.4001H121.67C121.757 16.4001 121.757 16.4001 121.757 16.4856V21.9726C121.757 22.0581 121.757 22.0573 121.67 22.0573ZM125.858 22.2283C123.938 22.2283 123.328 20.7718 123.328 19.2283C123.328 17.6856 123.938 16.2283 125.858 16.2283C127.777 16.2283 128.388 17.6856 128.388 19.2283C128.388 20.6856 127.777 22.2283 125.858 22.2283ZM125.858 16.6573C124.724 16.6573 124.549 18.0291 124.549 19.1428C124.549 20.1718 124.637 21.8856 125.945 21.8856C127.079 21.8856 127.253 20.5146 127.253 19.4001C127.253 18.2856 127.166 16.6573 125.858 16.6573ZM134.495 20.5146V22.0573C134.495 22.2291 133.971 22.2291 133.971 22.1428L130.918 18.0291C130.83 17.9428 130.83 18.0291 130.83 18.0291L130.918 21.8856C130.918 21.9718 130.918 22.0573 130.83 22.0573H130.133C130.045 22.0573 130.045 21.9718 130.045 21.8856L130.133 17.8573V16.4856C130.133 16.4001 130.133 16.4001 130.22 16.4001H130.743C130.83 16.4001 130.918 16.4001 130.918 16.4856L133.622 20.1718C133.709 20.2573 133.796 20.2573 133.796 20.1718L133.709 16.6573C133.709 16.5718 133.709 16.4856 133.796 16.4856H134.408C134.495 16.4856 134.495 16.5718 134.495 16.6573V20.5146ZM141.038 22.0573H139.991C139.904 22.0573 139.816 22.0573 139.816 21.9718C139.816 21.9718 139.642 21.5428 139.555 21.2856L139.205 20.5146C139.205 20.4291 139.118 20.4291 139.118 20.4291H137.286C137.199 20.4291 137.199 20.4291 137.199 20.5146L136.763 21.9718C136.763 22.0573 136.676 22.0573 136.589 22.0573H135.89C135.803 22.0573 135.803 21.9718 135.803 21.8856L137.984 16.4001C137.984 16.3146 138.682 16.3146 138.682 16.4001L140.689 21.2856C140.776 21.5428 141.038 21.8856 141.038 21.8856C141.125 22.0573 141.125 22.0573 141.038 22.0573ZM138.246 17.8573C138.246 17.7718 138.158 17.7718 138.158 17.8573L137.373 20.0001C137.373 20.0856 137.373 20.0856 137.461 20.0856H138.944C139.031 20.0856 139.031 20.0001 139.031 20.0001L138.246 17.8573ZM145.836 22.0573H142.521C142.433 22.0573 142.433 22.0573 142.433 21.9718V16.4856C142.433 16.4001 142.433 16.4001 142.521 16.4001H143.393C143.48 16.4001 143.48 16.4001 143.48 16.4856V21.3726C143.48 21.4581 143.568 21.6298 143.742 21.6298H144.44C144.964 21.6298 145.923 21.4573 145.923 21.4573C146.011 21.4573 146.098 21.4573 146.098 21.5436V22.0581L145.836 22.0573ZM152.03 22.1428C151.157 22.1428 150.547 21.9718 150.023 21.7146C149.936 21.7146 149.936 21.6291 149.936 21.5428L150.11 20.9428C150.11 20.8573 150.198 20.8573 150.285 20.9428C150.722 21.3718 151.332 21.7146 152.03 21.7146C152.553 21.7146 153.164 21.2856 153.164 20.7718C153.164 19.3146 149.936 19.9146 149.936 17.7718C149.936 16.8283 150.634 16.2283 151.681 16.2283C152.553 16.2283 153.251 16.4008 153.688 16.4008C153.775 16.4008 153.775 16.4856 153.775 16.4856L153.6 17.0856C153.6 17.1718 153.513 17.1718 153.426 17.1718C152.99 16.9146 152.553 16.6573 151.681 16.6573C151.245 16.6573 150.809 16.9146 150.809 17.4291C150.809 18.9718 154.037 18.2001 154.037 20.6001C154.124 21.7146 153.251 22.1428 152.03 22.1428ZM159.707 16.9146C159.707 17.0001 159.62 17.0001 159.62 17.0001C159.62 17.0001 158.66 16.9146 158.137 16.9146C158.05 16.9146 157.962 17.0001 157.962 17.0856V22.0573C157.962 22.1428 157.962 22.1428 157.875 22.1428H157.003C156.915 22.1428 156.915 22.1428 156.915 22.0573V17.0856C156.915 17.0001 156.828 16.9146 156.741 16.9146C156.218 16.9146 155.258 17.0001 155.258 17.0001C155.171 17.0001 155.171 17.0001 155.171 16.9146V16.4856C155.171 16.4001 155.258 16.4001 155.345 16.4001H159.62C159.707 16.4001 159.794 16.4001 159.794 16.4856L159.707 16.9146ZM165.553 17.1718L165.465 20.3428C165.465 21.5428 164.768 22.2283 163.459 22.2283C161.976 22.2283 161.191 21.6283 161.191 20.3428V16.4856C161.191 16.4001 161.191 16.4001 161.278 16.4001H162.15C162.238 16.4001 162.238 16.4001 162.238 16.4856V20.2573C162.238 21.1146 162.848 21.6291 163.459 21.6291C164.069 21.6291 164.681 21.2856 164.681 20.3428V17.1726V16.4863C164.681 16.4008 164.681 16.3153 164.768 16.3153H165.553C165.64 16.3153 165.64 16.4008 165.64 16.4863C165.553 16.4863 165.553 16.9146 165.553 17.1718ZM169.217 22.0573C168.17 22.0573 168.083 21.9718 167.821 21.9718C167.559 21.9718 167.559 22.0573 167.384 22.0573C167.297 22.0573 167.297 22.0573 167.297 21.9718V16.4856C167.297 16.4001 167.297 16.4001 167.384 16.4001H169.478C170.7 16.4001 171.834 17.3428 171.834 19.1428C171.834 20.6856 170.874 22.0573 169.217 22.0573ZM169.217 16.7428H168.606C168.519 16.7428 168.431 16.8283 168.431 16.9146V21.1146C168.431 21.4573 168.693 21.6291 169.13 21.6291C170.525 21.6291 170.7 20.0001 170.7 18.9718C170.7 17.3428 169.915 16.7428 169.217 16.7428ZM174.364 22.0573H173.492C173.404 22.0573 173.404 22.0573 173.404 21.9718V16.4856C173.404 16.4001 173.404 16.4001 173.492 16.4001H174.364C174.451 16.4001 174.451 16.4001 174.451 16.4856V21.9726C174.539 22.0581 174.451 22.0573 174.364 22.0573ZM180.035 22.0573H176.458C176.37 22.0573 176.37 22.0573 176.37 21.9718V16.4856C176.37 16.4001 176.37 16.4001 176.458 16.4001H179.948C180.035 16.4001 180.122 16.4001 180.122 16.4856V16.9146C180.122 17.0001 180.035 17.0001 179.948 17.0001C179.948 17.0001 178.901 16.8283 178.464 16.8283H177.679C177.592 16.8283 177.417 16.9146 177.417 17.0856V18.8001C177.417 18.8001 177.417 18.8856 177.505 18.8856L179.249 18.8001C179.336 18.8001 179.336 18.8001 179.336 18.8856V19.3146C179.336 19.4001 179.249 19.4001 179.249 19.4001L177.505 19.3146C177.505 19.3146 177.417 19.3146 177.417 19.4001V21.3718C177.417 21.4573 177.505 21.6291 177.679 21.6291H178.464C178.988 21.6291 180.122 21.4566 180.122 21.4566C180.209 21.4566 180.296 21.4566 180.296 21.5428V22.0573H180.035ZM183.524 22.1428C182.652 22.1428 182.041 21.9718 181.518 21.7146C181.43 21.7146 181.43 21.6291 181.43 21.5428L181.605 20.9428C181.605 20.8573 181.692 20.8573 181.78 20.9428C182.216 21.3718 182.826 21.7146 183.524 21.7146C184.048 21.7146 184.658 21.2856 184.658 20.7718C184.658 19.3146 181.43 19.9146 181.43 17.7718C181.43 16.8283 182.129 16.2283 183.176 16.2283C184.048 16.2283 184.745 16.4008 185.182 16.4008C185.269 16.4008 185.269 16.4856 185.269 16.4856L185.095 17.0856C185.095 17.1718 185.007 17.1718 184.92 17.1718C184.484 16.9146 184.048 16.6573 183.176 16.6573C182.739 16.6573 182.303 16.9146 182.303 17.4291C182.303 18.9718 185.531 18.2001 185.531 20.6001C185.618 21.7146 184.745 22.1428 183.524 22.1428Z" fill="#ffc72c"/>
</svg>
