<svg width="66" height="24" viewBox="0 0 66 24" fill="none" xmlns="http://www.w3.org/2000/svg">
<path d="M17.7935 1.09423C18.7145 1.19698 19.8418 1.70923 20.3533 1.70923C20.5573 1.70923 20.8655 1.91398 20.8655 2.73298C20.8655 3.44998 21.0695 4.88323 21.0695 5.70298C21.0695 6.41923 20.8655 6.82873 20.5573 6.82873C20.3533 6.82873 20.147 6.41848 20.045 5.90698C19.7383 4.67773 19.124 3.75673 18.6118 3.34723C16.769 1.91398 15.0275 1.60723 13.1848 1.60723C7.75705 1.60723 4.2748 6.11248 4.2748 11.232C4.2748 13.485 4.68505 15.3277 5.5048 16.7617C7.34755 20.652 11.3405 22.1887 14.1058 22.1887C14.7208 22.1887 16.3588 22.086 17.7928 21.267C19.3288 20.448 20.1478 19.4242 20.9668 17.9902C21.377 17.274 21.581 17.0692 21.6838 17.0692C21.9905 17.0692 22.094 17.7862 21.9905 18.195C21.8885 19.0147 21.0688 20.8582 20.6593 21.5752C20.5565 21.882 19.9423 22.2915 19.6355 22.4962C19.1233 22.701 16.3588 23.418 13.4915 23.418C8.6788 23.418 5.19655 21.0622 3.8653 19.4242C2.53405 17.8882 0.998047 15.5332 0.998047 11.6422C0.998047 7.75048 3.25105 4.67848 4.6843 3.55198C7.5523 1.19698 10.7263 0.47998 13.7983 0.47998C14.924 0.58198 16.46 0.78673 17.792 1.09423H17.7935ZM36.3275 1.19698C36.5323 1.29898 36.7378 1.81123 36.7378 1.81123C36.8398 2.42623 37.0445 4.37098 37.0445 4.57648C37.0445 5.19073 37.0445 5.49823 36.8398 5.49823C36.533 5.49823 36.1228 5.29348 36.02 4.78123C35.6113 3.55198 34.6903 2.52823 34.382 2.32348C33.7678 1.81123 32.9488 1.50448 32.027 1.50448C29.774 1.50448 28.1368 3.24448 28.1368 5.49823C28.1368 7.85323 29.8768 8.97898 32.8468 10.9252C35.4065 12.6652 37.5568 14.406 37.5568 17.478C37.5568 19.2187 36.635 21.0622 34.7915 22.2907C33.6658 23.0077 31.7195 23.52 30.1835 23.52C29.0578 23.52 26.8033 23.1097 25.7803 22.5982C25.4735 22.3942 24.9605 21.6772 24.9605 21.4725C24.7565 20.3467 24.4498 18.8107 24.4498 18.2985C24.4498 18.1957 24.7565 17.6835 24.962 17.6835C25.2688 17.6835 25.781 18.6052 26.1913 19.6297C27.1123 21.4725 29.2633 22.2915 30.5945 22.2915C32.9495 22.2915 34.6903 20.6535 34.6903 18.1957C34.6903 16.7625 33.9733 15.2257 30.491 12.9735C27.6238 11.1307 25.5763 9.18448 25.5763 6.31723C25.5763 4.67848 26.2933 3.24523 27.419 2.22148C28.4428 1.29973 30.0823 0.58273 32.4373 0.58273C33.9733 0.58273 35.8175 1.09498 36.3283 1.19773L36.3275 1.19698ZM43.5988 4.47373C43.496 2.93773 43.496 2.42548 41.6525 2.11798C40.9355 2.01598 40.7308 1.70773 40.7308 1.50373C40.7308 1.19698 41.141 1.09348 41.5505 1.09348C42.4715 1.09348 44.1103 1.19623 45.2368 1.19623C46.8748 1.19623 47.6938 1.09348 48.821 1.09348C49.3333 1.09348 49.6408 1.19623 49.6408 1.50373C49.6408 1.81123 49.3325 2.01598 48.719 2.11798C46.7728 2.52823 46.7728 3.34798 46.67 4.26823C46.568 5.29348 46.568 7.54648 46.568 14.202C46.568 16.0447 46.568 18.195 46.67 19.2187C46.7728 21.0615 46.9783 21.6765 49.1278 22.086C49.742 22.1887 50.0495 22.3942 50.0495 22.701C50.0495 23.0077 49.5373 23.1112 49.1278 23.1112C47.3878 23.1112 45.032 22.9065 44.111 22.9065C43.0873 22.9065 42.779 23.0085 41.5513 23.0085C40.9363 23.0085 40.6295 22.8037 40.6295 22.4962C40.6295 22.2915 40.9363 22.086 41.6533 21.882C43.3933 21.4717 43.496 20.9602 43.5995 19.4242C43.7015 18.195 43.8035 14.7142 43.8035 11.8462C43.7015 9.79798 43.7015 5.60023 43.5995 4.47448L43.5988 4.47373ZM64.3858 1.19698C64.5898 1.29898 64.796 1.81123 64.796 1.81123C64.898 2.42623 65.1028 4.37098 65.1028 4.57648C65.1028 5.19073 65.1028 5.49823 64.898 5.49823C64.5898 5.49823 64.181 5.29348 64.0783 4.78123C63.668 3.55198 62.7485 2.52823 62.4403 2.32348C61.826 1.81123 61.007 1.50448 60.0853 1.50448C57.8323 1.50448 56.1943 3.24448 56.1943 5.49823C56.1943 7.85323 57.9343 8.97898 60.9043 10.9252C63.464 12.6652 65.6143 14.406 65.6143 17.478C65.6143 19.2187 64.6933 21.0622 62.8505 22.2907C61.7233 23.0077 59.7785 23.52 58.2425 23.52C57.1153 23.52 54.8623 23.1097 53.8393 22.5982C53.531 22.3942 53.0195 21.6772 53.0195 21.4725C52.8155 20.3467 52.5073 18.8107 52.5073 18.2985C52.5073 18.1957 52.8155 17.6835 53.0195 17.6835C53.3278 17.6835 53.8393 18.6052 54.2495 19.6297C55.1698 21.4725 57.3208 22.2915 58.6513 22.2915C61.0063 22.2915 62.747 20.6535 62.747 18.1957C62.747 16.7625 62.0308 15.2257 58.5493 12.9735C55.682 11.1307 53.6345 9.18448 53.6345 6.31723C53.6345 4.67848 54.3508 3.24523 55.4773 2.22148C56.5003 1.29973 58.139 0.58273 60.4955 0.58273C62.0315 0.58273 63.8743 1.09498 64.3858 1.19773V1.19698Z" fill="#ffc72c"/>
</svg>
