<svg aria-hidden="true" style="position: absolute; width: 0; height: 0; overflow: hidden;" version="1.1" xmlns="http://www.w3.org/2000/svg" xmlns:xlink="http://www.w3.org/1999/xlink">
<defs>
<symbol id="icon Anticipating Climate Impacts" viewBox="0 0 32 32">
<title>icon Anticipating Climate Impacts</title>
<path fill="#d33d3e" style="fill: var(--color1, #d33d3e)" d="M0 16c0-8.837 7.163-16 16-16s16 7.163 16 16-7.163 16-16 16-16-7.163-16-16z"></path>
<path fill="#fafafa" style="fill: var(--color2, #fafafa)" d="M25.188 7.563h-18.377c-0.001 0-0.001 0-0.002 0-0.337 0-0.61 0.273-0.61 0.61 0 0.001 0 0.001 0 0.002v-0 14.081c0 0.337 0.275 0.613 0.612 0.613h8.704v0.956c0 0.336 0.275 0.612 0.612 0.612 0.338-0.001 0.612-0.275 0.613-0.613v-0.955h8.447c0.338-0.002 0.611-0.275 0.612-0.613v-14.080c0-0.001 0-0.002 0-0.003 0-0.337-0.273-0.61-0.61-0.61-0.001 0-0.002 0-0.003 0h0zM23.074 12.623c-0.002 0.337-0.275 0.61-0.612 0.612h-0c-0.001 0-0.002 0-0.003 0-0.337 0-0.61-0.273-0.61-0.61 0-0.001 0-0.002 0-0.003v0-0.312l-4.38 4.416v0.006h-0.005c-0.037 0.037-0.086 0.061-0.129 0.086-0.024 0.012-0.043 0.037-0.067 0.049-0.060 0.023-0.13 0.037-0.203 0.037h-0c-0.012 0-0.018 0.006-0.030 0.006-0.043 0-0.080-0.013-0.123-0.025-0.037-0.006-0.073-0.006-0.11-0.018-0.030-0.012-0.055-0.043-0.086-0.061-0.037-0.024-0.080-0.037-0.11-0.074h-0.006v-0.006l-1.746-1.757-4.986 5.034c-0.11 0.113-0.264 0.184-0.435 0.184h-0c-0.001 0-0.002 0-0.003 0-0.337 0-0.61-0.273-0.61-0.61 0-0.168 0.068-0.321 0.178-0.431v0l5.42-5.482c0.113-0.108 0.266-0.175 0.435-0.175s0.322 0.067 0.435 0.175l-0-0 1.746 1.764 3.957-3.994h-0.318c-0.338-0.001-0.611-0.274-0.613-0.612v-0c0-0.337 0.276-0.613 0.613-0.613h1.788c0.013 0 0.025 0.006 0.043 0.006 0.061 0.006 0.129 0.012 0.19 0.037 0.060 0.030 0.122 0.073 0.171 0.116 0.006 0.006 0.019 0.012 0.025 0.018 0.056 0.055 0.101 0.12 0.132 0.193l0.002 0.004c0.030 0.079 0.043 0.159 0.043 0.238h0.006l0.001 1.801z"></path>
</symbol>
<symbol id="icon Comprehensive Planning Grid Modernization" viewBox="0 0 32 32">
<title>icon Comprehensive Planning Grid Modernization</title>
<path fill="#b098c8" style="fill: var(--color3, #b098c8)" d="M0 16c0-8.837 7.163-16 16-16s16 7.163 16 16-7.163 16-16 16-16-7.163-16-16z"></path>
<path fill="#fafafa" style="fill: var(--color2, #fafafa)" d="M7.75 7.75v3.5h12v-3.5h-12zM21.25 7.75v3.5h3v-3.5h-3zM24.25 12.75h-3v8.5h3v-8.5zM24.25 22.75h-3v1.5h3v-1.5zM19.75 24.25v-1.5h-3.25c-0.69 0-1.25-0.56-1.25-1.25v-1.75h-7.5v4.5h12zM7.75 18.25h2.5v-5.5h-2.5v5.5zM11.75 12.75v5.5h3.75c0.69 0 1.25 0.56 1.25 1.25v1.75h3v-8.5h-8zM6.25 7.5c0-0.69 0.56-1.25 1.25-1.25h17c0.69 0 1.25 0.56 1.25 1.25v17c0 0.69-0.56 1.25-1.25 1.25h-17c-0.69 0-1.25-0.56-1.25-1.25v-17z"></path>
</symbol>
<symbol id="icon Data Transparency or Visualization" viewBox="0 0 32 32">
<title>icon Data Transparency or Visualization</title>
<path fill="#521a47" style="fill: var(--color4, #521a47)" d="M0 16c0-8.837 7.163-16 16-16s16 7.163 16 16-7.163 16-16 16-16-7.163-16-16z"></path>
<path fill="#fafafa" style="fill: var(--color2, #fafafa)" d="M22.044 21.226c-1.47 1.703-3.632 2.774-6.043 2.774-0 0-0 0-0.001 0h0c-4.417 0-8.013-3.596-8.013-8.013 0-4.251 3.33-7.726 7.512-7.987v7.987c0 0.155 0.075 0.3 0.195 0.396l6.35 4.843z"></path>
<path fill="#fafafa" style="fill: var(--color2, #fafafa)" d="M24.013 15.987c0 1.643-0.501 3.175-1.353 4.447l-6.159-4.697v-7.737c4.186 0.26 7.512 3.736 7.512 7.987z"></path>
</symbol>
<symbol id="icon Distributed Energy Resources (DERs)" viewBox="0 0 32 32">
<title>icon Distributed Energy Resources (DERs)</title>
<path fill="#0e426a" style="fill: var(--color5, #0e426a)" d="M0 16c0-8.837 7.163-16 16-16s16 7.163 16 16-7.163 16-16 16-16-7.163-16-16z"></path>
<path fill="#fafafa" style="fill: var(--color2, #fafafa)" d="M13.933 17.345c-0.147 0.37-0.335 0.689-0.565 0.974l0.006-0.007 4.7 2.689c0.137-0.351 0.325-0.677 0.558-0.967l-4.7-2.689zM18.632 11.972c-0.223-0.278-0.411-0.597-0.548-0.942l-0.009-0.025-4.7 2.689c0.233 0.29 0.421 0.615 0.56 0.966l4.697-2.688zM24.151 9.662c-0.005 1.433-1.167 2.593-2.601 2.593-0.003 0-0.006 0-0.009-0h0c-0.002 0-0.005 0-0.008 0-1.433 0-2.596-1.16-2.6-2.593v-0c0.005-1.432 1.167-2.592 2.6-2.592 0.003 0 0.006 0 0.009 0h-0c1.44 0 2.61 1.16 2.61 2.592zM24.151 22.34c-0.006 1.432-1.168 2.59-2.6 2.59-0.004 0-0.007 0-0.011-0h0.001c-0.002 0-0.005 0-0.008 0-1.432 0-2.594-1.158-2.6-2.589v-0.001c0.006-1.431 1.168-2.589 2.6-2.589 0.003 0 0.006 0 0.010 0h-0c0.003 0 0.006-0 0.010-0 1.432 0 2.594 1.158 2.6 2.589v0.001zM13.073 16.002c-0.005 1.433-1.168 2.593-2.602 2.593-0.004 0-0.007 0-0.011-0h0.001c-0.003 0-0.007 0-0.010 0-1.434 0-2.597-1.16-2.602-2.593v-0c0.006-1.433 1.169-2.592 2.603-2.592 0.003 0 0.006 0 0.009 0h-0.001c0.003 0 0.007-0 0.010-0 1.434 0 2.596 1.159 2.602 2.591v0.001z"></path>
</symbol>
<symbol id="icon Electric Vehicles" viewBox="0 0 32 32">
<title>icon Electric Vehicles</title>
<path fill="#98d2e0" style="fill: var(--color6, #98d2e0)" d="M0 16c0-8.837 7.163-16 16-16s16 7.163 16 16-7.163 16-16 16-16-7.163-16-16z"></path>
<path fill="#fafafa" style="fill: var(--color2, #fafafa)" d="M22.035 12.992c-0.005-0.023 0-0.051-0.005-0.074l-0.805-3.042c-0.295-1.122-1.175-1.876-2.19-1.876h-6.070c-1.015 0-1.895 0.754-2.19 1.875l-0.805 3.043c-0.005 0.022 0 0.050-0.005 0.073-1.165 0.697-1.965 2.085-1.965 3.683v2.323c0 0.969 0.63 1.762 1.45 1.91v1.96c0 0.626 0.447 1.133 1 1.133 0.552 0 1-0.507 1-1.133v-1.932h9.1v1.932c0 0.626 0.447 1.133 1 1.133 0.552 0 1-0.507 1-1.133v-1.96c0.82-0.148 1.45-0.941 1.45-1.91v-2.323c0-1.598-0.8-2.986-1.965-3.682zM20.36 15.682c0.49 0 0.895 0.466 0.895 1.043 0 0.573-0.405 1.037-0.895 1.037-0.495 0-0.895-0.465-0.895-1.037 0-0.578 0.4-1.042 0.895-1.042zM11.645 15.682c0.49 0 0.895 0.466 0.895 1.043 0 0.573-0.405 1.037-0.895 1.037-0.495 0-0.895-0.465-0.895-1.037 0-0.578 0.4-1.042 0.895-1.042z"></path>
</symbol>
<symbol id="icon Energy Storage" viewBox="0 0 32 32">
<title>icon Energy Storage</title>
<path fill="#9bb26c" style="fill: var(--color7, #9bb26c)" d="M0 16c0-8.837 7.163-16 16-16s16 7.163 16 16-7.163 16-16 16-16-7.163-16-16z"></path>
<path fill="#fafafa" style="fill: var(--color2, #fafafa)" d="M14.33 7.547h3.85c0.339 0 0.613-0.275 0.613-0.614s-0.275-0.614-0.613-0.614v0h-3.85c-0.339 0-0.614 0.275-0.614 0.614s0.275 0.614 0.614 0.614v0zM21.294 9.134h-10.587c-0.001 0-0.001 0-0.002 0-0.338 0-0.612 0.274-0.612 0.612 0 0.001 0 0.001 0 0.002v-0 15.318c0 0.338 0.276 0.614 0.614 0.614h10.588c0.339-0.001 0.613-0.275 0.614-0.614v-15.318c0-0.001 0-0.001 0-0.002 0-0.338-0.274-0.612-0.612-0.612-0.001 0-0.001 0-0.002 0h0zM18.424 17.748l-2.32 3.453c-0.11 0.164-0.294 0.27-0.504 0.27-0.002 0-0.004 0-0.005-0h0c-0.001 0-0.002 0-0.004 0-0.337 0-0.61-0.273-0.61-0.61 0-0.127 0.039-0.245 0.105-0.342l-0.001 0.002 1.676-2.503h-2.668c-0 0-0 0-0 0-0.235 0-0.439-0.13-0.544-0.323l-0.002-0.003c-0.044-0.082-0.070-0.179-0.070-0.283 0-0.128 0.040-0.247 0.107-0.344l-0.001 0.002 2.313-3.454c0.113-0.165 0.301-0.272 0.513-0.272 0.126 0 0.244 0.038 0.342 0.103l-0.002-0.001c0.282 0.19 0.356 0.57 0.166 0.852l-1.675 2.497h2.674c0.339 0.002 0.613 0.277 0.613 0.616 0 0.127-0.038 0.245-0.104 0.343l0.001-0.002z"></path>
</symbol>
<symbol id="icon Environmental Justice" viewBox="0 0 32 32">
<title>icon Environmental Justice</title>
<path fill="#fabb14" style="fill: var(--color8, #fabb14)" d="M0 16c0-8.837 7.163-16 16-16s16 7.163 16 16-7.163 16-16 16-16-7.163-16-16z"></path>
<path fill="#fafafa" style="fill: var(--color2, #fafafa)" d="M12.34 16.22c-0.405 1.615-1.759 2.674-3.394 2.674h-0.020c-1.64-0.006-2.995-1.085-3.374-2.681-0.011-0.045-0.018-0.097-0.018-0.151 0-0.36 0.291-0.653 0.652-0.654h5.52c0.203 0 0.393 0.092 0.517 0.249 0.085 0.111 0.136 0.252 0.136 0.404 0 0.056-0.007 0.111-0.020 0.163l0.001-0.005zM26.444 16.226c-0.399 1.609-1.76 2.668-3.388 2.668h-0.026c-1.635-0.006-2.995-1.085-3.375-2.681-0.011-0.045-0.018-0.097-0.018-0.151 0-0.361 0.292-0.653 0.653-0.654h5.52c0.202 0 0.392 0.092 0.517 0.255 0.124 0.157 0.17 0.367 0.117 0.563z"></path>
<path fill="#fafafa" style="fill: var(--color2, #fafafa)" d="M23.702 12.037c0-0.002 0-0.005 0-0.007 0-0.358-0.29-0.648-0.648-0.648-0.002 0-0.004 0-0.006 0h-6.398v-1.432c0.809-0.277 1.382-1.029 1.387-1.915v-0.001c-0.036-1.1-0.936-1.978-2.041-1.978s-2.005 0.878-2.041 1.975l-0 0.003c0 0.89 0.582 1.641 1.387 1.916v1.432h-6.396c-0.001 0-0.001 0-0.002 0-0.36 0-0.652 0.292-0.652 0.652 0 0.001 0 0.002 0 0.003v-0 2.066h1.308v-1.413h5.742v10.118l-4.218 1.942c-0.227 0.108-0.381 0.335-0.381 0.598 0 0.048 0.005 0.094 0.015 0.139l-0.001-0.004c0.066 0.3 0.334 0.517 0.641 0.517h9.195c0 0 0 0 0 0 0.313 0 0.575-0.219 0.641-0.513l0.001-0.004c0.010-0.042 0.015-0.090 0.015-0.14 0-0.262-0.155-0.488-0.378-0.592l-0.004-0.002-4.218-1.942 0.001-10.117h5.742v1.413h1.308v-2.067zM15.997 8.76c-0.001 0-0.001 0-0.002 0-0.402 0-0.728-0.325-0.73-0.726v-0c0.002-0.401 0.328-0.726 0.73-0.726 0.001 0 0.001 0 0.002 0h-0c0.001 0 0.002 0 0.003 0 0.402 0 0.728 0.325 0.73 0.726v0c-0.002 0.401-0.328 0.726-0.73 0.726-0.001 0-0.001 0-0.002 0h0z"></path>
</symbol>
<symbol id="icon Innovation and Clusters" viewBox="0 0 32 32">
<title>icon Innovation and Clusters</title>
<path fill="#dba76e" style="fill: var(--color9, #dba76e)" d="M0 16c0-8.837 7.163-16 16-16s16 7.163 16 16-7.163 16-16 16-16-7.163-16-16z"></path>
<path fill="#fafafa" style="fill: var(--color2, #fafafa)" d="M16.001 7.937c0 0 0.001 0 0.001 0 0.362 0 0.656-0.294 0.656-0.656 0-0 0-0.001 0-0.001v0-1.123c-0.014-0.352-0.303-0.631-0.657-0.631s-0.642 0.28-0.656 0.63l-0 0.001v1.123c0 0.363 0.293 0.657 0.656 0.657zM10.704 9.192l-0.798-0.794c-0.121-0.135-0.296-0.219-0.49-0.219-0.363 0-0.657 0.294-0.657 0.657 0 0.196 0.086 0.371 0.221 0.492l0.001 0.001 0.797 0.795c0.118 0.119 0.282 0.192 0.463 0.192 0.182 0 0.347-0.075 0.465-0.195l0-0c0.118-0.119 0.191-0.282 0.191-0.463 0-0.182-0.074-0.346-0.193-0.465l-0-0zM22.096 8.398l-0.798 0.795c-0.119 0.119-0.193 0.283-0.193 0.465 0 0.362 0.294 0.656 0.656 0.656 0.181 0 0.344-0.073 0.463-0.191l-0 0 0.797-0.794c0.137-0.121 0.222-0.297 0.222-0.492 0-0.363-0.294-0.657-0.657-0.657-0.195 0-0.369 0.085-0.49 0.219l-0.001 0.001zM7.854 14.738h-1.128c-0.363 0-0.657 0.294-0.657 0.656s0.294 0.656 0.657 0.656v0h1.128c0.363 0 0.657-0.294 0.657-0.656s-0.294-0.656-0.657-0.656v0zM25.274 14.738h-1.128c-0.363 0-0.657 0.294-0.657 0.656s0.294 0.656 0.657 0.656v0h1.128c0.363 0 0.657-0.294 0.657-0.656s-0.294-0.656-0.657-0.656v0zM19.681 11.622c-0.978-0.873-2.275-1.407-3.696-1.407-0.219 0-0.435 0.013-0.648 0.037l0.026-0.002c-2.601 0.313-4.631 2.39-4.868 4.986l-0.002 0.022c-0.014 0.145-0.021 0.314-0.021 0.485 0 1.281 0.435 2.461 1.167 3.399l-0.009-0.012c0.755 0.964 1.168 2.224 1.168 3.543v0.635c0.005 1.764 1.436 3.192 3.201 3.192 0.001 0 0.001 0 0.002 0h-0c0 0 0.001 0 0.001 0 1.765 0 3.196-1.428 3.201-3.192v-0.634c0-1.273 0.433-2.546 1.26-3.675 0.665-0.895 1.064-2.022 1.064-3.242 0-0.004 0-0.009-0-0.013v0.001c0-1.57-0.67-3.072-1.845-4.122zM16 25.187c-0.952-0-1.738-0.707-1.864-1.624l-0.001-0.010h3.73c-0.127 0.927-0.913 1.634-1.865 1.634h-0z"></path>
</symbol>
<symbol id="icon Local-Level Planning or Support" viewBox="0 0 32 32">
<title>icon Local-Level Planning or Support</title>
<path fill="#815935" style="fill: var(--color10, #815935)" d="M0 16c0-8.837 7.163-16 16-16s16 7.163 16 16-7.163 16-16 16-16-7.163-16-16z"></path>
<path fill="#fafafa" style="fill: var(--color2, #fafafa)" d="M16 6c-3.438 0-6.237 2.85-6.237 6.35 0 3.287 5.462 12.93 5.694 13.337 0.11 0.189 0.312 0.314 0.544 0.314s0.433-0.125 0.542-0.311l0.002-0.003c0.23-0.406 5.694-10.050 5.694-13.337 0-3.5-2.8-6.35-6.238-6.35zM14.15 12.1c0-1 0.825-1.806 1.85-1.806s1.85 0.806 1.85 1.806c0 0.994-0.825 1.806-1.85 1.806s-1.85-0.812-1.85-1.806z"></path>
</symbol>
<symbol id="icon Microgrids" viewBox="0 0 32 32">
<title>icon Microgrids</title>
<path fill="#de3c0c" style="fill: var(--color11, #de3c0c)" d="M0 16c0-8.837 7.163-16 16-16s16 7.163 16 16-7.163 16-16 16-16-7.163-16-16z"></path>
<path fill="#fafafa" style="fill: var(--color2, #fafafa)" d="M9.5 6.24v3.020c0 0.133-0.107 0.24-0.24 0.24v0h-3.020c-0.133 0-0.24-0.107-0.24-0.24v0-3.020c0-0.133 0.107-0.24 0.24-0.24v0h3.020c0.133 0 0.24 0.107 0.24 0.24v0zM15 6.24v3.020c0 0.133-0.107 0.24-0.24 0.24v0h-3.020c-0.133 0-0.24-0.107-0.24-0.24v0-3.020c0-0.133 0.107-0.24 0.24-0.24v0h3.020c0.133 0 0.24 0.107 0.24 0.24v0zM20.5 6.24v3.020c0 0.133-0.107 0.24-0.24 0.24v0h-3.020c-0.133 0-0.24-0.107-0.24-0.24v0-3.020c0-0.133 0.107-0.24 0.24-0.24h3.020c0.133 0 0.24 0.107 0.24 0.24v0zM26 6.24v3.020c0 0.133-0.107 0.24-0.24 0.24v0h-3.020c-0.133 0-0.24-0.107-0.24-0.24v0-3.020c0-0.133 0.107-0.24 0.24-0.24h3.020c0.133 0 0.24 0.107 0.24 0.24v0zM9.5 11.74v3.020c0 0.133-0.107 0.24-0.24 0.24v0h-3.020c-0.133 0-0.24-0.107-0.24-0.24v0-3.020c0-0.133 0.107-0.24 0.24-0.24v0h3.020c0.133 0 0.24 0.107 0.24 0.24v0zM15 11.74v3.020c0 0.133-0.107 0.24-0.24 0.24v0h-3.020c-0.133 0-0.24-0.107-0.24-0.24v0-3.020c0-0.133 0.107-0.24 0.24-0.24v0h3.020c0.133 0 0.24 0.107 0.24 0.24v0zM20.5 11.74v3.020c0 0.133-0.107 0.24-0.24 0.24v0h-3.020c-0.133 0-0.24-0.107-0.24-0.24v0-3.020c0-0.133 0.107-0.24 0.24-0.24h3.020c0.133 0 0.24 0.107 0.24 0.24v0zM26 11.74v3.020c0 0.133-0.107 0.24-0.24 0.24v0h-3.020c-0.133 0-0.24-0.107-0.24-0.24v0-3.020c0-0.133 0.107-0.24 0.24-0.24h3.020c0.133 0 0.24 0.107 0.24 0.24v0zM9.5 17.24v3.020c0 0.133-0.107 0.24-0.24 0.24v0h-3.020c-0.133 0-0.24-0.107-0.24-0.24v0-3.020c0-0.133 0.107-0.24 0.24-0.24v0h3.020c0.133 0 0.24 0.107 0.24 0.24v0zM15 17.24v3.020c0 0.133-0.107 0.24-0.24 0.24v0h-3.020c-0.133 0-0.24-0.107-0.24-0.24v0-3.020c0-0.133 0.107-0.24 0.24-0.24v0h3.020c0.133 0 0.24 0.107 0.24 0.24v0zM20.5 17.24v3.020c0 0.133-0.107 0.24-0.24 0.24v0h-3.020c-0.133 0-0.24-0.107-0.24-0.24v0-3.020c0-0.133 0.107-0.24 0.24-0.24h3.020c0.133 0 0.24 0.107 0.24 0.24v0zM26 17.24v3.020c0 0.133-0.107 0.24-0.24 0.24v0h-3.020c-0.133 0-0.24-0.107-0.24-0.24v0-3.020c0-0.133 0.107-0.24 0.24-0.24h3.020c0.133 0 0.24 0.107 0.24 0.24v0zM9.5 22.74v3.020c0 0.133-0.107 0.24-0.24 0.24v0h-3.020c-0.133 0-0.24-0.107-0.24-0.24v0-3.020c0-0.133 0.107-0.24 0.24-0.24v0h3.020c0.133 0 0.24 0.107 0.24 0.24v0zM15 22.74v3.020c0 0.133-0.107 0.24-0.24 0.24v0h-3.020c-0.133 0-0.24-0.107-0.24-0.24v0-3.020c0-0.133 0.107-0.24 0.24-0.24v0h3.020c0.133 0 0.24 0.107 0.24 0.24v0zM20.5 22.74v3.020c0 0.133-0.107 0.24-0.24 0.24v0h-3.020c-0.133 0-0.24-0.107-0.24-0.24v0-3.020c0-0.133 0.107-0.24 0.24-0.24h3.020c0.133 0 0.24 0.107 0.24 0.24v0zM26 22.74v3.020c0 0.133-0.107 0.24-0.24 0.24v0h-3.020c-0.133 0-0.24-0.107-0.24-0.24v0-3.020c0-0.133 0.107-0.24 0.24-0.24h3.020c0.133 0 0.24 0.107 0.24 0.24v0z"></path>
</symbol>
<symbol id="icon Technology or System Standards" viewBox="0 0 32 32">
<title>icon Technology or System Standards</title>
<path fill="#1b1b1b" style="fill: var(--color12, #1b1b1b)" d="M0 16c0-8.837 7.163-16 16-16s16 7.163 16 16-7.163 16-16 16-16-7.163-16-16z"></path>
<path fill="#fafafa" style="fill: var(--color2, #fafafa)" d="M25.15 6.5h-18.3c-0.428 0.001-0.774 0.347-0.775 0.775v12.768c0 0.428 0.347 0.776 0.775 0.776h6.612l-1.033 3.698c-0.018 0.062-0.028 0.133-0.028 0.207 0 0.428 0.347 0.776 0.775 0.776h5.646c0.428-0.001 0.775-0.349 0.775-0.777 0-0.073-0.010-0.144-0.029-0.211l0.001 0.005-1.032-3.698h6.611c0.428-0.001 0.775-0.348 0.775-0.776v0-12.768c-0.001-0.428-0.347-0.774-0.775-0.775h-0zM24.374 8.050v7.553h-16.748v-7.552h16.748zM17.516 19.268h-9.89v-2.114h16.748v2.114h-6.858z"></path>
<path fill="#fafafa" style="fill: var(--color2, #fafafa)" d="M19.81 10.885l-3.753 3.401c-0.15 0.133-0.349 0.214-0.567 0.214-0.002 0-0.004 0-0.005-0h-0.039c-0.231-0.009-0.437-0.11-0.582-0.267l-0.001-0.001-1.582-1.716c-0.13-0.139-0.209-0.327-0.209-0.533 0-0.241 0.109-0.457 0.28-0.6l0.001-0.001c0.148-0.125 0.341-0.201 0.552-0.201 0.246 0 0.469 0.104 0.625 0.271l0 0 1.010 1.096 3.126-2.83c0.152-0.136 0.353-0.219 0.574-0.219 0.238 0 0.453 0.096 0.609 0.252l-0-0c0.138 0.142 0.222 0.335 0.222 0.548 0 0.232-0.101 0.441-0.261 0.585l-0.001 0.001z"></path>
</symbol>
<symbol id="icon Workforce Development" viewBox="0 0 32 32">
<title>icon Workforce Development</title>
<path fill="#04a85f" style="fill: var(--color13, #04a85f)" d="M0 16c0-8.837 7.163-16 16-16s16 7.163 16 16-7.163 16-16 16-16-7.163-16-16z"></path>
<path fill="#fafafa" style="fill: var(--color2, #fafafa)" d="M10.74 9.513c0 0.835-0.698 1.513-1.56 1.513s-1.56-0.678-1.56-1.513c0-0.836 0.698-1.513 1.56-1.513s1.56 0.677 1.56 1.513zM12.090 12.851v3.63c0 0.523-0.43 0.946-0.97 0.959-0.287 0.005-0.527 0.216-0.527 0.504v5.047c0 0.557-0.451 1.010-1.008 1.010h-0.802c-0.557 0-1.009-0.452-1.009-1.009 0-0 0-0.001 0-0.001v0-5.047c0-0.288-0.24-0.498-0.527-0.504-0.539-0.012-0.975-0.436-0.975-0.958v-3.63c0-0.45 0.414-0.818 0.918-0.818h3.988c0.504 0 0.913 0.368 0.913 0.817zM17.56 9.513c0 0.835-0.7 1.513-1.561 1.513s-1.56-0.678-1.56-1.513c0-0.836 0.698-1.513 1.56-1.513s1.56 0.677 1.56 1.513zM18.91 12.851v3.63c0 0.523-0.432 0.946-0.971 0.959-0.287 0.005-0.527 0.216-0.527 0.504v5.047c0 0.557-0.452 1.010-1.009 1.010h-0.801c-0 0-0.001 0-0.001 0-0.557 0-1.009-0.452-1.009-1.009 0-0 0-0.001 0-0.001v0l0.001-5.047c0-0.288-0.24-0.498-0.527-0.504-0.539-0.012-0.975-0.436-0.975-0.958v-3.63c0-0.45 0.413-0.818 0.917-0.818h3.989c0.504 0 0.913 0.368 0.913 0.817zM24.378 9.513c0 0.835-0.698 1.513-1.56 1.513s-1.56-0.678-1.56-1.513c0-0.836 0.698-1.513 1.56-1.513s1.56 0.677 1.56 1.513zM25.728 12.851v3.63c0 0.523-0.431 0.946-0.97 0.959-0.288 0.005-0.527 0.216-0.527 0.504v5.047c0 0.557-0.452 1.010-1.009 1.010h-0.802c-0.557-0.001-1.008-0.452-1.008-1.009 0-0 0-0.001 0-0.001v0-5.047c0-0.288-0.24-0.498-0.527-0.504-0.539-0.012-0.975-0.436-0.975-0.958v-3.63c0-0.45 0.413-0.818 0.917-0.818h3.989c0.504 0 0.912 0.368 0.912 0.817z"></path>
</symbol>
<symbol id="Icon-down" viewBox="0 0 32 32">
<title>Icon-down</title>
<path d="M15.693 24.301l-14.96-14.96 2.517-2.512 12.443 12.443 12.445-12.443 2.515 2.512-14.96 14.96z"></path>
</symbol>
<symbol id="Icon-email" viewBox="0 0 32 32">
<title>Icon-email</title>
<path d="M1.186 7.431v19.68h29.628v-20.036l-15.593 13.116-14.036-12.763z"></path>
<path d="M28.812 4.889h-26.018l12.503 11.365 13.515-11.365z"></path>
</symbol>
<symbol id="Icon-info" viewBox="0 0 32 32">
<title>Icon-info</title>
<path d="M31.239 16l-0-0.010c-0.105-8.326-6.887-15.042-15.238-15.042s-15.132 6.717-15.238 15.052l0-0.010c-0.001 0.065-0.001 0.131-0.001 0.197 0 8.416 6.823 15.239 15.239 15.239s15.239-6.823 15.239-15.239c0-0.066-0-0.131-0.001-0.187zM13.051 12.809h4.503c0.022-0.002 0.047-0.004 0.073-0.004 0.188 0 0.358 0.073 0.485 0.192l-0-0c0.153 0.138 0.253 0.334 0.263 0.554l0 0.002c0.073 0.389 0 0.757-0.073 1.125l-0.053 0.272c-0.295 1.678-0.585 3.355-0.871 5.033l-0.096 0.544c-0.078 0.434-0.155 0.869-0.215 1.307-0.027 0.251-0.023 0.503 0.023 0.754 0.019 0.225 0.128 0.421 0.291 0.554l0.001 0.001c0.116 0.090 0.263 0.144 0.423 0.144 0.059 0 0.117-0.007 0.172-0.021l-0.005 0.001c0.372-0.093 0.7-0.233 0.998-0.416l-0.015 0.009c0.112-0.069 0.224-0.137 0.343-0.176 0.045-0.018 0.098-0.028 0.152-0.028 0.090 0 0.173 0.028 0.242 0.075l-0.001-0.001c0.073 0.104 0.116 0.232 0.116 0.371 0 0.042-0.004 0.084-0.012 0.124l0.001-0.004c-0.064 0.202-0.172 0.375-0.313 0.514l-0 0c-0.381 0.432-0.843 0.783-1.364 1.029l-0.026 0.011c-0.526 0.242-1.090 0.366-1.664 0.366-0.041 0.001-0.089 0.001-0.137 0.001-0.52 0-1.031-0.039-1.53-0.115l0.056 0.007c-0.903-0.16-2.039-1.378-1.84-2.674 0.066-0.43 0.128-0.857 0.19-1.287 0.078-0.535 0.155-1.070 0.24-1.602l0.251-1.538c0.155-0.912 0.309-1.824 0.434-2.741 0.105-0.763-0.176-1.090-0.873-1.125-0.284-0.027-0.545-0.105-0.78-0.225l0.012 0.006c-0.098-0.049-0.175-0.128-0.218-0.226l-0.001-0.003c-0.028-0.061-0.045-0.133-0.045-0.208 0-0.040 0.005-0.080 0.014-0.118l-0.001 0.003c0.015-0.105 0.059-0.197 0.124-0.27l-0 0.001c0.063-0.072 0.146-0.123 0.241-0.146l0.003-0.001c0.158-0.046 0.32-0.069 0.482-0.071zM15.369 7.214c0.337-0.225 0.751-0.359 1.197-0.359 0.033 0 0.065 0.001 0.097 0.002l-0.005-0v0.005c0.597 0.023 1.161 0.297 1.57 0.759 0.409 0.464 0.629 1.081 0.613 1.714-0.009 0.502-0.163 0.967-0.422 1.356l0.006-0.009c-0.256 0.386-0.614 0.685-1.036 0.863l-0.015 0.006c-0.241 0.101-0.521 0.16-0.814 0.16-0.182 0-0.358-0.022-0.526-0.065l0.015 0.003c-0.463-0.118-0.857-0.366-1.152-0.704l-0.002-0.003c-0.303-0.345-0.512-0.779-0.586-1.257l-0.002-0.014c-0.019-0.116-0.029-0.25-0.029-0.387 0-0.368 0.077-0.717 0.216-1.033l-0.006 0.016c0.19-0.437 0.496-0.807 0.885-1.056z"></path>
</symbol>
<symbol id="Icon-instagram" viewBox="0 0 32 32">
<title>Icon-instagram</title>
<path d="M16 11.132c-0.028-0.001-0.060-0.001-0.093-0.001-2.688 0-4.868 2.179-4.868 4.868s2.179 4.868 4.868 4.868c0.033 0 0.065-0 0.098-0.001l-0.005 0c2.648-0.052 4.775-2.211 4.775-4.867s-2.127-4.814-4.77-4.867l-0.005-0z"></path>
<path d="M9.44 1.186c-4.559 0-8.254 3.696-8.254 8.254v0 13.12c0 4.559 3.696 8.254 8.254 8.254h13.12c4.559 0 8.254-3.696 8.254-8.254v-13.12c0-4.559-3.696-8.254-8.254-8.254v0h-13.12zM23.753 10.036v0c-0.988 0-1.789-0.801-1.789-1.789s0.801-1.789 1.789-1.789v0c0.988 0 1.789 0.801 1.789 1.789s-0.801 1.789-1.789 1.789zM8.939 16c0-3.9 3.161-7.061 7.061-7.061s7.061 3.161 7.061 7.061v0c0 3.9-3.161 7.061-7.061 7.061s-7.061-3.161-7.061-7.061v0z"></path>
</symbol>
<symbol id="Icon-left" viewBox="0 0 32 32">
<title>Icon-left</title>
<path d="M7.264 15.629l14.959-14.957 2.513 2.513-12.444 12.444 12.444 12.446-2.513 2.513-14.959-14.959z"></path>
</symbol>
<symbol id="Icon-linkedin" viewBox="0 0 32 32">
<title>Icon-linkedin</title>
<path d="M8.098 29.554h-6.35v-19.232h6.35v19.232zM4.965 1.049c-0.082-0.007-0.178-0.012-0.275-0.012-0.858 0-1.64 0.329-2.225 0.867l0.002-0.002c-0.658 0.604-1.072 1.464-1.083 2.421l-0 0.002c-0 0.012-0 0.027-0 0.042 0 0.945 0.391 1.798 1.020 2.407l0.001 0.001c0.594 0.572 1.402 0.924 2.293 0.924 0.065 0 0.129-0.002 0.192-0.005l-0.009 0h0.043c0.083 0.007 0.179 0.012 0.277 0.012 0.863 0 1.649-0.332 2.235-0.876l-0.002 0.002c0.66-0.608 1.073-1.475 1.077-2.438v-0.001c0-0.006 0-0.012 0-0.019 0-0.958-0.402-1.822-1.046-2.433l-0.002-0.001c-0.59-0.557-1.388-0.899-2.266-0.899-0.082 0-0.163 0.003-0.244 0.009l0.011-0.001zM11.614 29.554h6.35v-10.738c-0.003-0.062-0.005-0.135-0.005-0.208 0-0.483 0.078-0.948 0.222-1.384l-0.009 0.031c0.238-0.681 0.679-1.269 1.262-1.689 0.583-0.418 1.28-0.645 1.996-0.649 2.306 0 3.218 1.764 3.218 4.35v10.286h6.35v-11.028c0-5.908-3.127-8.658-7.31-8.658-0.078-0.003-0.168-0.005-0.26-0.005-1.117 0-2.165 0.292-3.073 0.804l0.031-0.016c-1.017 0.571-1.838 1.382-2.405 2.359l-0.016 0.030v-2.72h-6.352c0.084 1.806 0 19.236 0 19.236z"></path>
</symbol>
<symbol id="Icon-magnify" viewBox="0 0 32 32">
<title>Icon-magnify</title>
<path d="M13.408 1.186c-6.75 0-12.222 5.472-12.222 12.222s5.472 12.222 12.222 12.222c2.509 0 4.842-0.756 6.782-2.053l-0.044 0.028 9.378 7.815 1.897-2.276-8.99-7.493c1.984-2.166 3.2-5.063 3.2-8.245 0-6.75-5.472-12.222-12.222-12.222-0 0-0 0-0 0h0zM4.148 13.408c0-5.114 4.146-9.26 9.26-9.26s9.26 4.146 9.26 9.26v0c0 5.114-4.146 9.26-9.26 9.26s-9.26-4.146-9.26-9.26v0z"></path>
</symbol>
<symbol id="Icon-Facebook" viewBox="0 0 32 32">
<title>Icon-Facebook</title>
<path d="M22.759 17.876l0.805-5.431h-5.044v-3.522c0-1.486 0.706-2.933 2.964-2.933h2.293v-4.622s-2.080-0.368-4.071-0.368c-4.153 0-6.868 2.601-6.868 7.308v4.139h-4.617v5.429h4.617v13.125h5.682v-13.125h4.238z"></path>
</symbol>
<symbol id="Icon-open-blank" viewBox="0 0 32 32">
<title>Icon-open-blank</title>
<path d="M25.365 4.947h-5.807v-2.844h8.655l0.030-0.032 0.030 0.032h1.952v1.95l0.030 0.030-0.030 0.030v8.657h-2.844v-5.811l-11.381 11.377-2.012-2.012 11.379-11.377z"></path>
<path d="M1.777 2.103v28.444h28.446v-14.912h-2.844v12.068h-22.756v-22.756h11.703v-2.844h-14.549z"></path>
</symbol>
<symbol id="Icon-printer" viewBox="0 0 32 32">
<title>Icon-printer</title>
<path d="M5.63 1.778h20.74v5.186h4.444v17.036h-4.444v5.925h-20.74v-5.925h-4.585l0.14-17.036h4.444v-5.186zM8.592 6.964h14.816v-2.222h-14.818v2.222zM8.592 26.964h14.816v-5.927h-14.818v5.927zM24.889 15.852c0.818 0 1.482-0.663 1.482-1.482s-0.663-1.482-1.482-1.482v0c-0.818 0-1.482 0.663-1.482 1.482s0.663 1.482 1.482 1.482v0z"></path>
</symbol>
<symbol id="Icon-right" viewBox="0 0 32 32">
<title>Icon-right</title>
<path d="M24.736 15.936l-14.959 14.955-2.513-2.511 12.444-12.446-12.444-12.444 2.513-2.513 14.959 14.957z"></path>
</symbol>
<symbol id="Icon-twitter" viewBox="0 0 32 32">
<title>Icon-twitter</title>
<path d="M27.465 7.275c1.313-0.165 2.507-0.52 3.608-1.039l-0.072 0.031c-0.84 1.307-1.862 2.413-3.045 3.32l-0.031 0.023c0.012 0.276 0.018 0.551 0.018 0.832 0 0.039 0 0.085 0 0.131 0 2.486-0.478 4.86-1.347 7.035l0.045-0.128c-0.916 2.313-2.2 4.294-3.799 5.972l0.007-0.007c-1.579 1.657-3.472 2.997-5.587 3.928l-0.111 0.044c-1.948 0.861-4.219 1.362-6.607 1.362-0.040 0-0.079-0-0.119-0l0.006 0c-3.521-0.003-6.789-1.086-9.491-2.935l0.058 0.037c0.44 0.057 0.95 0.090 1.466 0.090 2.919 0 5.594-1.043 7.673-2.776l-0.019 0.016c-1.351-0.030-2.587-0.504-3.572-1.281l0.013 0.010c-1.022-0.808-1.787-1.901-2.178-3.158l-0.012-0.046c0.347 0.071 0.746 0.112 1.155 0.112 0.579 0 1.138-0.082 1.668-0.235l-0.042 0.010c-1.452-0.32-2.68-1.121-3.538-2.223l-0.010-0.014c-0.869-1.112-1.394-2.53-1.394-4.071 0-0.004 0-0.009 0-0.013v0.001-0.082c0.853 0.498 1.81 0.773 2.786 0.805-1.292-0.925-2.22-2.287-2.57-3.866l-0.008-0.043c-0.101-0.437-0.159-0.939-0.159-1.455 0-1.19 0.309-2.308 0.852-3.278l-0.017 0.034c1.525 1.962 3.409 3.567 5.564 4.736l0.093 0.046c2.034 1.106 4.433 1.813 6.982 1.954l0.043 0.002c-0.099-0.438-0.156-0.941-0.156-1.458 0-0.004 0-0.009 0-0.013v0.001c-0-0.009-0-0.021-0-0.032 0-1.338 0.395-2.584 1.074-3.628l-0.016 0.026c0.693-1.074 1.68-1.902 2.83-2.379 0.667-0.285 1.443-0.45 2.258-0.45 0.482 0 0.95 0.058 1.398 0.167l-0.040-0.008c1.207 0.284 2.302 0.944 3.147 1.892 1.378-0.284 2.7-0.818 3.908-1.572-0.464 1.508-1.424 2.748-2.686 3.558l-0.026 0.015z"></path>
</symbol>
<symbol id="Icon-up" viewBox="0 0 32 32">
<title>Icon-up</title>
<path d="M16 7.264l14.96 14.96-2.515 2.512-12.445-12.443-12.445 12.443-2.512-2.515 14.957-14.96z"></path>
</symbol>
<symbol id="Icon-arrow-up" viewBox="0 0 48 48">
<title>Icon-arrow-up</title>
<path d="M24 7.172 7.172 24 10 26.828l12-12V40h4V14.828l12 12L40.828 24 24 7.172z"/>
</symbol>
<symbol id="Icon-youtube" viewBox="0 0 32 32">
<title>Icon-youtube</title>
<path d="M30.994 13.413c0.005-0.123 0.007-0.268 0.007-0.414 0-1.956-0.461-3.804-1.28-5.441l0.032 0.070c-0.579-0.713-1.391-1.217-2.318-1.397l-0.025-0.004c-2.887-0.285-6.24-0.447-9.631-0.447-0.626 0-1.25 0.006-1.873 0.017l0.094-0.001c-0.546-0.010-1.189-0.016-1.834-0.016-3.356 0-6.674 0.159-9.949 0.47l0.418-0.032c-0.781 0.151-1.46 0.519-1.99 1.037l0.001-0.001c-1.223 1.161-1.36 3.147-1.497 4.83-0.094 1.357-0.148 2.941-0.148 4.538s0.054 3.181 0.16 4.75l-0.012-0.213c0.039 0.946 0.178 1.884 0.409 2.802 0.164 0.708 0.498 1.362 0.967 1.906 0.555 0.564 1.262 0.944 2.030 1.092 2.939 0.373 5.899 0.528 8.859 0.462 4.77 0.071 8.953 0 13.9-0.391 0.823-0.149 1.537-0.539 2.085-1.093l0-0c0.38-0.391 0.667-0.871 0.83-1.401 0.451-1.372 0.71-2.952 0.71-4.592 0-0.060-0-0.12-0.001-0.18l0 0.009c0.053-0.784 0.053-5.518 0.053-6.359zM12.923 20.613v-8.67l8.068 4.356c-2.261 1.289-5.246 2.747-8.068 4.315z"></path>
</symbol>
<symbol id="Icon-link-chain" viewBox="0 0 30 32">
<title>Icon-link-chain</title>
<path d="M21.788 4.148c0.681 0 1.353 0.132 1.98 0.384 0.626 0.252 1.191 0.622 1.668 1.084s0.85 1.010 1.106 1.611c0.243 0.557 0.385 1.205 0.385 1.887s-0.142 1.33-0.397 1.918l0.012-0.031c-0.273 0.627-0.646 1.162-1.106 1.608l-0.001 0.001-4.254 4.144c-0.476 0.462-1.042 0.834-1.668 1.084-0.586 0.243-1.266 0.384-1.979 0.384s-1.393-0.141-2.014-0.397l0.035 0.013c-0.648-0.264-1.202-0.631-1.671-1.086l0.001 0.001-1.061-1.031-2.066 2.121 1.061 1.033c0.754 0.734 1.646 1.316 2.626 1.71 0.914 0.379 1.975 0.599 3.087 0.599s2.174-0.22 3.142-0.619l-0.055 0.020c1.019-0.417 1.891-0.995 2.628-1.712l-0.002 0.002 4.254-4.142c0.756-0.734 1.356-1.609 1.767-2.572 0.393-0.899 0.621-1.946 0.621-3.047s-0.228-2.148-0.641-3.097l0.019 0.050c-0.433-1.003-1.029-1.858-1.762-2.573l-0.002-0.002c-0.735-0.715-1.607-1.293-2.574-1.691l-0.054-0.020c-0.914-0.379-1.975-0.599-3.088-0.599s-2.174 0.22-3.143 0.619l0.055-0.020c-1.019 0.418-1.891 0.996-2.628 1.714l0.002-0.002-4.039 3.936 2.066 2.123 4.041-3.934c0.467-0.453 1.020-0.82 1.633-1.072l0.034-0.013c0.626-0.254 1.298-0.384 1.979-0.386z"></path>
<path d="M10.638 14.162c0.586-0.243 1.266-0.384 1.979-0.384s1.393 0.141 2.014 0.397l-0.035-0.013c0.628 0.252 1.193 0.622 1.669 1.084l1.061 1.033 2.066-2.123-1.061-1.033c-0.734-0.715-1.606-1.293-2.572-1.691l-0.054-0.020c-0.914-0.379-1.975-0.599-3.087-0.599s-2.174 0.22-3.142 0.619l0.055-0.020c-1.020 0.417-1.893 0.995-2.629 1.712l0.002-0.002-4.254 4.142c-0.735 0.715-1.331 1.57-1.746 2.521l-0.020 0.051c-0.393 0.899-0.621 1.946-0.621 3.047s0.229 2.148 0.641 3.097l-0.019-0.050c0.409 0.965 1.010 1.84 1.764 2.574s1.648 1.316 2.628 1.71c0.914 0.379 1.975 0.599 3.088 0.599s2.174-0.22 3.143-0.619l-0.055 0.020c1.019-0.418 1.891-0.996 2.627-1.714l-0.002 0.002 4.039-3.934-2.066-2.123-4.041 3.934c-0.475 0.462-1.042 0.834-1.668 1.084-0.586 0.244-1.268 0.385-1.982 0.385-0.713 0-1.392-0.141-2.013-0.396l0.035 0.013c-0.647-0.264-1.201-0.631-1.669-1.086l0.001 0.001c-0.461-0.448-0.834-0.983-1.093-1.579l-0.012-0.032c-0.243-0.557-0.385-1.205-0.385-1.887s0.142-1.33 0.397-1.918l-0.012 0.031c0.256-0.599 0.631-1.147 1.108-1.609l4.254-4.144c0.476-0.462 1.042-0.832 1.668-1.084z"></path>
</symbol>
<symbol id="Icon-CSIS-logo-long" viewBox="0 0 226 32">
<title>Icon-CSIS-logo-long</title>
<path d="M17.182 4.4c0.943 0.105 2.095 0.629 2.619 0.629 0.21 0 0.523 0.21 0.523 1.048 0 0.734 0.21 2.2 0.21 3.039 0 0.733-0.21 1.152-0.523 1.152-0.21 0-0.42-0.419-0.524-0.943-0.314-1.257-0.943-2.2-1.466-2.619-1.886-1.466-3.667-1.781-5.553-1.781-5.553 0-9.115 4.61-9.115 9.848 0 2.305 0.419 4.19 1.257 5.656 1.886 3.981 5.972 5.553 8.8 5.553 0.629 0 2.306-0.104 3.772-0.942 1.572-0.838 2.409-1.886 3.247-3.352 0.42-0.734 0.63-0.943 0.734-0.943 0.314 0 0.419 0.733 0.314 1.152-0.104 0.838-0.943 2.725-1.362 3.458-0.104 0.314-0.734 0.733-1.048 0.943-0.524 0.209-3.352 0.943-6.287 0.943-4.923 0-8.486-2.409-9.848-4.087-1.362-1.572-2.934-3.981-2.934-7.962s2.305-7.125 3.771-8.277c2.934-2.409 6.182-3.144 9.325-3.144 1.152 0.105 2.724 0.314 4.086 0.629zM36.145 4.505c0.21 0.104 0.42 0.629 0.42 0.629 0.104 0.628 0.314 2.618 0.314 2.828 0 0.629 0 0.943-0.21 0.943-0.314 0-0.734-0.21-0.838-0.734-0.42-1.256-1.363-2.304-1.677-2.513-0.628-0.524-1.466-0.839-2.409-0.839-2.305 0-3.981 1.781-3.981 4.086 0 2.409 1.782 3.562 4.819 5.553 2.62 1.781 4.82 3.562 4.82 6.705 0 1.781-0.943 3.667-2.828 4.924-1.153 0.734-3.144 1.257-4.715 1.257-1.152 0-3.457-0.419-4.504-0.943-0.314-0.21-0.838-0.943-0.838-1.152-0.21-1.153-0.524-2.725-0.524-3.248 0-0.105 0.314-0.629 0.523-0.629 0.314 0 0.838 0.943 1.257 1.991 0.943 1.885 3.144 2.724 4.505 2.724 2.409 0 4.19-1.676 4.19-4.191 0-1.466-0.733-3.038-4.296-5.343-2.933-1.886-5.029-3.877-5.029-6.81 0-1.675 0.734-3.143 1.886-4.19 1.048-0.943 2.724-1.676 5.133-1.676 1.572 0 3.458 0.523 3.981 0.629zM43.584 7.858c-0.104-1.572-0.104-2.096-1.991-2.409-0.734-0.105-0.943-0.42-0.943-0.629 0-0.314 0.419-0.42 0.838-0.42 0.943 0 2.619 0.105 3.772 0.105 1.675 0 2.515-0.105 3.667-0.105 0.524 0 0.838 0.105 0.838 0.42s-0.313 0.523-0.942 0.628c-1.991 0.42-1.991 1.257-2.096 2.2-0.104 1.048-0.104 3.352-0.104 10.163 0 1.886 0 4.086 0.104 5.133 0.105 1.886 0.314 2.515 2.515 2.934 0.629 0.105 0.943 0.314 0.943 0.629s-0.524 0.419-0.943 0.419c-1.782 0-4.191-0.209-5.134-0.209-1.048 0-1.362 0.104-2.619 0.104-0.629 0-0.942-0.209-0.942-0.523 0-0.21 0.314-0.42 1.048-0.629 1.781-0.42 1.886-0.943 1.991-2.515 0.104-1.257 0.209-4.819 0.209-7.752-0.104-2.096-0.104-6.391-0.209-7.544zM64.852 4.505c0.21 0.104 0.419 0.629 0.419 0.629 0.105 0.628 0.314 2.618 0.314 2.828 0 0.629 0 0.943-0.209 0.943-0.314 0-0.734-0.21-0.839-0.734-0.419-1.256-1.362-2.304-1.676-2.513-0.629-0.524-1.467-0.839-2.409-0.839-2.306 0-3.981 1.781-3.981 4.086 0 2.409 1.781 3.562 4.819 5.553 2.619 1.781 4.819 3.562 4.819 6.705 0 1.781-0.942 3.667-2.828 4.924-1.152 0.734-3.144 1.257-4.714 1.257-1.152 0-3.457-0.419-4.505-0.943-0.314-0.21-0.838-0.943-0.838-1.152-0.21-1.153-0.524-2.725-0.524-3.248 0-0.105 0.314-0.629 0.524-0.629 0.314 0 0.838 0.943 1.257 1.991 0.942 1.885 3.144 2.724 4.504 2.724 2.409 0 4.191-1.676 4.191-4.191 0-1.466-0.734-3.038-4.296-5.343-2.934-1.886-5.029-3.877-5.029-6.81 0-1.675 0.733-3.143 1.885-4.19 1.048-0.943 2.725-1.676 5.134-1.676 1.572 0 3.457 0.523 3.981 0.629zM78.577 30.907v-30.383c0-0.314 0.209-0.524 0.523-0.524s0.524 0.21 0.524 0.524v30.383c0 0.314-0.21 0.523-0.524 0.523-0.209 0-0.523-0.21-0.523-0.523zM95.445 13.515c-1.675 0-3.038-0.942-3.038-3.561 0-2.2 1.362-3.458 3.038-3.458h1.991c0.105 0 0.105 0 0.105 0.105l-0.105 0.733c0 0.104-0.104 0.104-0.209 0.104-0.629-0.209-0.839-0.314-1.886-0.314s-1.572 1.048-1.572 2.934c0 2.306 0.943 2.934 1.991 2.934 0.524 0 1.048-0.314 1.467-0.734h0.104l0.314 0.315v0.104c-0.524 0.524-1.362 0.838-2.2 0.838zM103.722 13.411h-4.296c-0.105 0-0.105 0-0.105-0.105v-6.705c0-0.104 0-0.104 0.105-0.104h4.19c0.105 0 0.21 0 0.21 0.104v0.524c0 0.104-0.104 0.104-0.21 0.104 0 0-1.257-0.209-1.781-0.209h-0.943c-0.104 0-0.314 0.105-0.314 0.314v2.095s0 0.105 0.104 0.105l2.096-0.105c0.104 0 0.104 0 0.104 0.105v0.523c0 0.105-0.104 0.105-0.104 0.105l-2.096-0.105s-0.104 0-0.104 0.105v2.409c0 0.104 0.104 0.314 0.314 0.314h0.943c0.629 0 1.991-0.21 1.991-0.21 0.104 0 0.21 0 0.21 0.105v0.629h-0.314zM111.055 11.525v1.886c0 0.209-0.628 0.209-0.628 0.104l-3.667-5.028c-0.105-0.105-0.105 0-0.105 0l0.105 4.714c0 0.104 0 0.21-0.105 0.21h-0.838c-0.105 0-0.105-0.105-0.105-0.21l0.105-4.924v-1.676c0-0.104 0-0.104 0.104-0.104h0.629c0.104 0 0.21 0 0.21 0.104l3.247 4.505c0.105 0.104 0.21 0.104 0.21 0l-0.104-4.296c0-0.105 0-0.21 0.104-0.21h0.733c0.104 0 0.104 0.104 0.104 0.21v4.714zM118.18 7.125c0 0.104-0.104 0.104-0.104 0.104s-1.152-0.104-1.781-0.104c-0.112 0.008-0.201 0.097-0.21 0.208l-0 0.001v6.078c0 0.104 0 0.104-0.104 0.104h-1.048c-0.104 0-0.104 0-0.104-0.104v-6.078c0-0.104-0.104-0.209-0.209-0.209-0.629 0-1.782 0.104-1.782 0.104-0.104 0-0.104 0-0.104-0.104v-0.524c0-0.104 0.104-0.104 0.209-0.104h5.134c0.104 0 0.21 0 0.21 0.104l-0.105 0.524zM124.257 13.411h-4.296c-0.104 0-0.104 0-0.104-0.105v-6.705c0-0.104 0-0.104 0.104-0.104h4.191c0.104 0 0.21 0 0.21 0.104v0.524c0 0.104-0.105 0.104-0.21 0.104 0 0-1.257-0.209-1.781-0.209h-0.943c-0.104 0-0.314 0.105-0.314 0.314v2.095s0 0.105 0.104 0.105l2.096-0.105c0.104 0 0.104 0 0.104 0.105v0.523c0 0.105-0.104 0.105-0.104 0.105l-2.096-0.105s-0.104 0-0.104 0.105v2.409c0 0.104 0.104 0.314 0.314 0.314h0.943c0.629 0 1.991-0.21 1.991-0.21 0.104 0 0.209 0 0.209 0.105v0.629h-0.313zM131.591 13.411h-1.257c-0.104 0-0.104-0.105-0.21-0.105l-1.466-2.619c-0.21-0.314-0.419-0.419-0.629-0.419h-0.419c-0.104 0-0.21 0.104-0.21 0.21v2.934c0 0.104 0 0.104-0.104 0.104h-1.048c-0.105 0-0.105 0-0.105-0.104v-6.706c0-0.104 0-0.104 0.105-0.104h3.038c1.048 0 1.886 0.734 1.886 1.676s-0.734 1.676-1.676 1.886c-0.105 0-0.105 0.104 0 0.104 0.104 0.104 0.209 0.21 0.419 0.524l1.572 2.2 0.314 0.42h-0.21zM128.447 6.915h-0.733c-0.104 0-0.314 0.104-0.314 0.314v2.305c0 0.104 0.105 0.209 0.21 0.209h0.419c1.048 0 1.676-0.419 1.676-1.466 0-0.838-0.523-1.362-1.257-1.362zM140.915 7.228s-1.362-0.209-1.781-0.209h-0.839c-0.104 0-0.314 0.105-0.314 0.314v2.095s0 0.105 0.105 0.105l1.991-0.105c0.104 0 0.104 0 0.104 0.105v0.523c0 0.105-0.104 0.105-0.104 0.105l-1.991-0.105s-0.105 0-0.105 0.105v3.144c0 0.104 0 0.104-0.104 0.104h-1.048c-0.104 0-0.104 0-0.104-0.104v-6.707c0-0.104 0-0.104 0.104-0.104h4.086c0.105 0 0.21 0 0.21 0.104v0.524c0 0.104-0.104 0.104-0.21 0.104zM145.21 13.62c-2.305 0-3.038-1.781-3.038-3.667s0.733-3.667 3.038-3.667c2.305 0 3.038 1.781 3.038 3.667 0 1.782-0.733 3.667-3.038 3.667zM145.21 6.81c-1.362 0-1.572 1.675-1.572 3.038 0 1.257 0.104 3.352 1.676 3.352 1.362 0 1.572-1.676 1.572-3.038s-0.104-3.352-1.676-3.352zM155.687 13.411h-1.256c-0.105 0-0.105-0.105-0.21-0.105l-1.466-2.619c-0.21-0.314-0.42-0.419-0.629-0.419h-0.42c-0.104 0-0.209 0.104-0.209 0.21v2.934c0 0.104 0 0.104-0.105 0.104h-1.048c-0.104 0-0.104 0-0.104-0.104v-6.706c0-0.104 0-0.104 0.104-0.104h3.038c1.048 0 1.886 0.734 1.886 1.676s-0.733 1.676-1.676 1.886c-0.104 0-0.104 0.104 0 0.104 0.104 0.104 0.21 0.21 0.419 0.524l1.572 2.2 0.314 0.42h-0.21zM152.544 6.915h-0.733c-0.105 0-0.314 0.104-0.314 0.314v2.305c0 0.104 0.104 0.209 0.209 0.209h0.42c1.048 0 1.676-0.419 1.676-1.466 0-0.838-0.524-1.362-1.257-1.362zM163.021 13.515c-1.048 0-1.781-0.21-2.409-0.524-0.104 0-0.104-0.104-0.104-0.209l0.209-0.734c0-0.104 0.105-0.104 0.21 0 0.523 0.524 1.257 0.943 2.095 0.943 0.629 0 1.362-0.523 1.362-1.152 0-1.782-3.876-1.048-3.876-3.667 0-1.153 0.838-1.886 2.095-1.886 1.048 0 1.886 0.21 2.409 0.21 0.105 0 0.105 0.104 0.105 0.104l-0.21 0.734c0 0.104-0.104 0.104-0.21 0.104-0.523-0.313-1.048-0.628-2.095-0.628-0.524 0-1.048 0.314-1.048 0.942 0 1.886 3.876 0.943 3.876 3.878 0.105 1.361-1.048 1.885-2.409 1.885zM172.241 7.125c0 0.104-0.105 0.104-0.105 0.104s-1.152-0.104-1.781-0.104c-0.104 0-0.21 0.104-0.21 0.209v6.078c0 0.104 0 0.104-0.104 0.104h-1.048c-0.104 0-0.104 0-0.104-0.104v-6.078c0-0.104-0.105-0.209-0.21-0.209-0.629 0-1.781 0.104-1.781 0.104-0.105 0-0.105 0-0.105-0.104v-0.524c0-0.104 0.105-0.104 0.21-0.104h5.133c0.105 0 0.21 0 0.21 0.104l-0.104 0.524zM179.366 13.411h-1.257c-0.105 0-0.105-0.105-0.21-0.105l-1.466-2.619c-0.21-0.314-0.42-0.419-0.629-0.419h-0.419c-0.113 0.008-0.202 0.097-0.21 0.209l-0 0.001v2.934c0 0.104 0 0.104-0.104 0.104h-1.048c-0.104 0-0.104 0-0.104-0.104v-6.706c0-0.104 0-0.104 0.104-0.104h3.039c1.048 0 1.885 0.734 1.885 1.676s-0.733 1.676-1.676 1.886c-0.104 0-0.104 0.104 0 0.104 0.105 0.104 0.21 0.21 0.42 0.524l1.571 2.2 0.314 0.42h-0.209zM176.222 6.915h-0.733c-0.104 0-0.314 0.104-0.314 0.314v2.305c0.008 0.112 0.098 0.201 0.209 0.209l0.001 0h0.419c1.048 0 1.676-0.419 1.676-1.466 0-0.838-0.524-1.362-1.257-1.362zM187.013 13.411h-1.256c-0.105 0-0.21 0-0.21-0.105 0 0-0.21-0.523-0.314-0.838l-0.419-0.943c0-0.104-0.105-0.104-0.105-0.104h-2.2c-0.104 0-0.104 0-0.104 0.104l-0.524 1.782c0 0.105-0.104 0.105-0.21 0.105h-0.838c-0.105 0-0.105-0.105-0.105-0.21l2.619-6.705c0-0.105 0.839-0.105 0.839 0l2.409 5.972c0.104 0.314 0.419 0.733 0.419 0.733 0.105 0.21 0.105 0.21 0 0.21zM183.66 8.277c0-0.104-0.104-0.104-0.104 0l-0.943 2.619c0 0.104 0 0.104 0.104 0.104h1.782c0.104 0 0.104-0.104 0.104-0.104l-0.943-2.619zM192.776 7.125c0 0.104-0.105 0.104-0.105 0.104s-1.152-0.104-1.781-0.104c-0.104 0-0.21 0.104-0.21 0.209v6.078c0 0.104 0 0.104-0.104 0.104h-1.048c-0.105 0-0.104 0-0.104-0.104v-6.078c0-0.104-0.105-0.209-0.21-0.209-0.629 0-1.782 0.104-1.782 0.104-0.104 0-0.104 0-0.104-0.104v-0.524c0-0.104 0.104-0.104 0.21-0.104h5.133c0.105 0 0.21 0 0.21 0.104l-0.104 0.524zM198.957 13.411h-4.296c-0.105 0-0.105 0-0.105-0.105v-6.705c0-0.104 0-0.104 0.105-0.104h4.19c0.105 0 0.21 0 0.21 0.104v0.524c0 0.104-0.104 0.104-0.21 0.104 0 0-1.256-0.209-1.781-0.209h-0.943c-0.104 0-0.314 0.105-0.314 0.314v2.095s0 0.105 0.104 0.105l2.096-0.105c0.104 0 0.104 0 0.104 0.105v0.523c0 0.105-0.104 0.105-0.104 0.105l-2.096-0.105s-0.104 0-0.104 0.105v2.409c0 0.104 0.104 0.314 0.314 0.314h0.943c0.629 0 1.991-0.21 1.991-0.21 0.104 0 0.21 0 0.21 0.105v0.629h-0.314zM205.871 13.411c-0.104 0-0.419-0.314-0.419-0.314h-0.21c-0.519 0.262-1.132 0.417-1.78 0.419h-0.001c-1.676 0-3.038-0.943-3.038-3.562 0-2.2 1.362-3.457 3.038-3.457h1.991c0.104 0 0.104 0 0.104 0.104l-0.104 0.734c0 0.104-0.104 0.104-0.21 0.104-0.629-0.209-0.838-0.313-1.885-0.313s-1.572 1.048-1.572 2.933c0 2.306 0.943 3.039 1.991 3.039 0.419 0 1.048-0.314 1.048-0.734 0-0.104-0.104-1.885-0.104-1.885v-0.314c0-0.105 0.104-0.21 0.104-0.21h1.048s0.105 0 0.105 0.104v3.353h-0.105zM209.224 13.411h-1.048c-0.104 0-0.104 0-0.104-0.105v-6.705c0-0.104 0-0.104 0.104-0.104h1.048c0.104 0 0.104 0 0.104 0.104v6.705c0 0.105 0 0.105-0.104 0.105zM214.358 13.515c-1.676 0-3.038-0.943-3.038-3.562 0-2.2 1.362-3.457 3.038-3.457h1.991c0.104 0 0.104 0 0.104 0.104l-0.104 0.734c0 0.104-0.104 0.104-0.21 0.104-0.628-0.209-0.838-0.313-1.885-0.313s-1.572 1.048-1.572 2.933c0 2.306 0.943 2.934 1.991 2.934 0.524 0 1.048-0.314 1.466-0.733h0.105l0.314 0.314v0.104c-0.524 0.524-1.362 0.838-2.2 0.838zM225.568 10.686h-0.838v2.619c0 0.105-0.104 0.105-0.104 0.105h-2.619c-1.257 0-1.886-0.838-1.886-1.572s0.524-1.362 1.362-1.572c-0.496-0.21-0.838-0.693-0.838-1.256 0-0.001 0-0.001 0-0.002v0c0-0.943 0.733-1.466 1.781-1.466h1.048c0.104 0 0.21 0 0.21 0.104v0.419c0 0.105-0.105 0.105-0.105 0.105s-0.419-0.21-0.629-0.21c-0.523 0-0.942 0.314-0.942 1.048 0 0.629 0.419 1.153 1.048 1.153h0.838v-0.734c0-0.104 0.105-0.104 0.105-0.104l0.838 0.104c0.105 0 0.105 0 0.105 0.105v0.629h0.838c0.104 0 0.104 0 0.104 0.104v0.314c-0.209 0-0.209 0.104-0.314 0.104zM223.683 10.582h-1.048c-0.734 0-1.048 0.524-1.048 1.152s0.42 1.257 0.943 1.257c0.524 0 0.839 0 1.153-0.104v-2.305zM93.769 26.925h-1.048c-0.104 0-0.104 0-0.104-0.104v-6.706c0-0.104 0-0.104 0.104-0.104h1.048c0.105 0 0.105 0 0.105 0.104v6.706c0 0.104 0 0.104-0.105 0.104zM101.416 25.040v1.885c0 0.21-0.629 0.21-0.629 0.105l-3.667-5.029c-0.104-0.105-0.104 0-0.104 0l0.104 4.714c0 0.104 0 0.21-0.104 0.21h-0.839c-0.104 0-0.104-0.105-0.104-0.21l0.104-4.924v-1.676c0-0.104 0-0.104 0.105-0.104h0.629c0.104 0 0.209 0 0.209 0.104l3.248 4.506c0.104 0.104 0.21 0.104 0.21 0l-0.105-4.296c0-0.105 0-0.21 0.105-0.21h0.733c0.104 0 0.104 0.104 0.104 0.21v4.714zM108.541 20.64c0 0.104-0.104 0.104-0.104 0.104s-1.153-0.104-1.782-0.104c-0.104 0-0.209 0.104-0.209 0.209v6.078c0 0.104 0 0.104-0.105 0.104h-1.048c-0.104 0-0.104 0-0.104-0.104v-6.079c-0.008-0.113-0.097-0.202-0.209-0.21l-0.001-0c-0.629 0-1.781 0.105-1.781 0.105-0.104 0-0.104 0-0.104-0.104v-0.524c0-0.104 0.104-0.104 0.209-0.104h5.134c0.104 0 0.209 0 0.209 0.104l-0.104 0.525zM114.723 26.925h-4.296c-0.105 0-0.105 0-0.105-0.104v-6.706c0-0.104 0-0.104 0.105-0.104h4.19c0.105 0 0.21 0 0.21 0.104v0.525c0 0.104-0.104 0.104-0.21 0.104 0 0-1.257-0.209-1.781-0.209h-0.943c-0.104 0-0.314 0.104-0.314 0.314v2.095s0 0.105 0.104 0.105l2.096-0.105c0.104 0 0.104 0 0.104 0.105v0.523c0 0.105-0.104 0.105-0.104 0.105l-2.096-0.105s-0.104 0-0.104 0.105v2.409c0 0.104 0.104 0.314 0.314 0.314h0.943c0.629 0 1.991-0.21 1.991-0.21 0.104 0 0.21 0 0.21 0.105v0.629h-0.314zM122.056 26.925h-1.257c-0.104 0-0.104-0.104-0.209-0.104l-1.467-2.62c-0.21-0.314-0.419-0.419-0.629-0.419h-0.419c-0.104 0-0.21 0.104-0.21 0.21v2.933c0 0.105 0 0.105-0.104 0.105h-1.048c-0.105 0-0.105 0-0.105-0.104v-6.706c0-0.104 0-0.104 0.105-0.104h3.038c1.048 0 1.886 0.734 1.886 1.676s-0.734 1.676-1.676 1.886c-0.105 0-0.105 0.104 0 0.104 0.104 0.104 0.209 0.21 0.419 0.524l1.572 2.2 0.314 0.419c-0.105-0.104-0.21 0-0.21 0zM118.913 20.43h-0.733c-0.104 0-0.314 0.104-0.314 0.314v2.305c0 0.104 0.105 0.209 0.21 0.209h0.419c1.048 0 1.676-0.419 1.676-1.466-0.104-0.838-0.523-1.362-1.257-1.362zM129.181 25.040v1.885c0 0.21-0.629 0.21-0.629 0.105l-3.667-5.029c-0.105-0.105-0.104 0-0.104 0l0.104 4.714c0 0.104 0 0.21-0.104 0.21h-0.839c-0.104 0-0.104-0.105-0.104-0.21l0.104-4.924v-1.676c0-0.104 0-0.104 0.104-0.104h0.629c0.104 0 0.21 0 0.21 0.104l3.248 4.506c0.104 0.104 0.209 0.104 0.209 0l-0.104-4.296c0-0.105 0-0.21 0.104-0.21h0.733c0.105 0 0.105 0.104 0.105 0.21v4.714zM136.934 26.925h-1.257c-0.104 0-0.209 0-0.209-0.104 0 0-0.21-0.524-0.314-0.839l-0.42-0.943c0-0.104-0.104-0.104-0.104-0.104h-2.2c-0.104 0-0.104 0-0.104 0.104l-0.524 1.782c0 0.104-0.104 0.104-0.209 0.104h-0.839c-0.104 0-0.104-0.104-0.104-0.209l2.619-6.705c0-0.105 0.838-0.105 0.838 0l2.41 5.972c0.104 0.314 0.419 0.733 0.419 0.733 0.21 0.21 0.104 0.21 0 0.21zM133.686 21.792c0-0.104-0.104-0.104-0.104 0l-0.943 2.619c0 0.104 0 0.104 0.104 0.104h1.782c0.104 0 0.104-0.104 0.104-0.104l-0.943-2.619zM142.8 20.64c0 0.104-0.104 0.104-0.104 0.104s-1.152-0.104-1.781-0.104c-0.112 0.008-0.201 0.097-0.21 0.208l-0 0.001v6.078c0 0.104 0 0.104-0.104 0.104h-1.048c-0.105 0-0.105 0-0.105-0.104v-6.079c0-0.104-0.104-0.21-0.209-0.21-0.629 0-1.782 0.105-1.782 0.105-0.104 0-0.104 0-0.104-0.104v-0.524c0-0.104 0.104-0.104 0.21-0.104h5.133c0.104 0 0.21 0 0.21 0.104l-0.105 0.525zM145.629 26.925h-1.048c-0.104 0-0.104 0-0.104-0.104v-6.706c0-0.104 0-0.104 0.104-0.104h1.048c0.105 0 0.105 0 0.105 0.104v6.706c0 0.104 0 0.104-0.105 0.104zM150.659 27.135c-2.305 0-3.038-1.781-3.038-3.667s0.733-3.667 3.038-3.667c2.305 0 3.038 1.781 3.038 3.667 0 1.781-0.733 3.667-3.038 3.667zM150.659 20.326c-1.362 0-1.572 1.675-1.572 3.038 0 1.256 0.104 3.352 1.676 3.352 1.362 0 1.572-1.676 1.572-3.038s-0.104-3.353-1.676-3.353zM161.031 25.040v1.885c0 0.21-0.629 0.21-0.629 0.105l-3.667-5.029c-0.104-0.105-0.104 0-0.104 0l0.104 4.714c0 0.104 0 0.21-0.104 0.21h-0.839c-0.104 0-0.104-0.105-0.104-0.21l0.104-4.924v-1.676c0-0.104 0-0.104 0.105-0.104h0.629c0.104 0 0.209 0 0.209 0.104l3.248 4.506c0.104 0.104 0.21 0.104 0.21 0l-0.105-4.296c0-0.105 0-0.21 0.105-0.21h0.733c0.104 0 0.104 0.104 0.104 0.21v4.714zM168.888 26.925h-1.257c-0.104 0-0.21 0-0.21-0.104 0 0-0.209-0.524-0.314-0.839l-0.419-0.943c0-0.104-0.104-0.104-0.104-0.104h-2.2c-0.104 0-0.104 0-0.104 0.104l-0.524 1.782c0 0.104-0.104 0.104-0.209 0.104h-0.839c-0.104 0-0.104-0.104-0.104-0.209l2.619-6.705c0-0.105 0.838-0.105 0.838 0l2.409 5.972c0.105 0.314 0.42 0.733 0.42 0.733 0.104 0.21 0.104 0.21 0 0.21zM165.536 21.792c0-0.104-0.105-0.104-0.105 0l-0.943 2.619c0 0.104 0 0.104 0.105 0.104h1.781c0.104 0 0.104-0.104 0.104-0.104l-0.942-2.619zM174.65 26.925h-3.981c-0.104 0-0.104 0-0.104-0.104v-6.706c0-0.104 0-0.104 0.104-0.104h1.048c0.104 0 0.104 0 0.104 0.104v5.973c0 0.104 0.105 0.314 0.314 0.314h0.839c0.629 0 1.781-0.21 1.781-0.21 0.105 0 0.21 0 0.21 0.105v0.629h-0.314zM182.088 27.031c-1.048 0-1.781-0.21-2.409-0.524-0.104 0-0.104-0.104-0.104-0.209l0.209-0.734c0-0.104 0.105-0.104 0.21 0 0.524 0.524 1.257 0.943 2.095 0.943 0.629 0 1.363-0.523 1.363-1.152 0-1.782-3.877-1.048-3.877-3.667 0-1.153 0.838-1.886 2.095-1.886 1.048 0 1.886 0.21 2.409 0.21 0.105 0 0.105 0.104 0.105 0.104l-0.21 0.734c0 0.104-0.104 0.104-0.209 0.104-0.524-0.314-1.048-0.629-2.096-0.629-0.523 0-1.048 0.315-1.048 0.943 0 1.886 3.877 0.943 3.877 3.878 0.104 1.361-0.943 1.885-2.41 1.885zM191.309 20.64c0 0.104-0.105 0.104-0.105 0.104s-1.152-0.104-1.781-0.104c-0.104 0-0.21 0.104-0.21 0.209v6.078c0 0.104 0 0.104-0.104 0.104h-1.048c-0.105 0-0.105 0-0.105-0.104v-6.079c0-0.104-0.104-0.21-0.209-0.21-0.629 0-1.782 0.105-1.782 0.105-0.104 0-0.104 0-0.104-0.104v-0.524c0-0.104 0.104-0.104 0.21-0.104h5.133c0.105 0 0.21 0 0.21 0.104l-0.104 0.525zM198.328 20.953l-0.105 3.878c0 1.466-0.838 2.304-2.409 2.304-1.781 0-2.724-0.734-2.724-2.305v-4.715c0-0.104 0-0.104 0.104-0.104h1.048c0.105 0 0.105 0 0.105 0.104v4.611c0 1.048 0.733 1.675 1.466 1.675s1.466-0.418 1.466-1.571v-4.714c0-0.104 0-0.21 0.105-0.21h0.943c0.104 0 0.104 0.105 0.104 0.21-0.104 0-0.104 0.523-0.104 0.838zM202.728 26.925c-1.257 0-1.362-0.104-1.676-0.104s-0.314 0.104-0.524 0.104c-0.104 0-0.104 0-0.104-0.104v-6.706c0-0.104 0-0.104 0.104-0.104h2.515c1.466 0 2.828 1.152 2.828 3.352 0 1.885-1.152 3.561-3.143 3.561zM202.728 20.43h-0.734c-0.104 0-0.209 0.104-0.209 0.21v5.133c0 0.419 0.314 0.629 0.838 0.629 1.676 0 1.886-1.991 1.886-3.247 0-1.992-0.943-2.725-1.781-2.725zM208.91 26.925h-1.048c-0.104 0-0.104 0-0.104-0.104v-6.706c0-0.104 0-0.104 0.104-0.104h1.048c0.104 0 0.104 0 0.104 0.104v6.706c0.105 0.104 0 0.104-0.104 0.104zM215.72 26.925h-4.296c-0.104 0-0.104 0-0.104-0.104v-6.706c0-0.104 0-0.104 0.104-0.104h4.191c0.104 0 0.21 0 0.21 0.104v0.525c0 0.104-0.105 0.104-0.21 0.104 0 0-1.257-0.209-1.782-0.209h-0.942c-0.105 0-0.314 0.104-0.314 0.314v2.095s0 0.105 0.104 0.105l2.095-0.105c0.105 0 0.105 0 0.105 0.105v0.523c0 0.105-0.105 0.105-0.105 0.105l-2.095-0.105s-0.104 0-0.104 0.105v2.409c0 0.104 0.104 0.314 0.314 0.314h0.942c0.629 0 1.992-0.21 1.992-0.21 0.104 0 0.209 0 0.209 0.105v0.629h-0.314zM219.911 27.031c-1.048 0-1.781-0.21-2.409-0.524-0.105 0-0.105-0.104-0.105-0.209l0.21-0.734c0-0.104 0.104-0.104 0.21 0 0.523 0.524 1.256 0.943 2.095 0.943 0.629 0 1.362-0.523 1.362-1.152 0-1.782-3.877-1.048-3.877-3.667 0-1.153 0.839-1.886 2.096-1.886 1.048 0 1.885 0.21 2.409 0.21 0.104 0 0.104 0.104 0.104 0.104l-0.209 0.734c0 0.104-0.105 0.104-0.21 0.104-0.524-0.314-1.048-0.629-2.095-0.629-0.524 0-1.048 0.315-1.048 0.943 0 1.886 3.876 0.943 3.876 3.878 0.105 1.361-0.943 1.885-2.409 1.885z"></path>
</symbol>
<symbol id="Icon-CSIS-logo" viewBox="0 0 88 32">
<title>Icon-CSIS-logo</title>
<path d="M22.392 1.459c1.228 0.137 2.731 0.82 3.413 0.82 0.272 0 0.683 0.273 0.683 1.365 0 0.956 0.272 2.867 0.272 3.96 0 0.955-0.272 1.501-0.683 1.501-0.272 0-0.547-0.547-0.683-1.229-0.409-1.639-1.228-2.867-1.911-3.413-2.457-1.911-4.779-2.32-7.236-2.32-7.237 0-11.88 6.007-11.88 12.833 0 3.004 0.547 5.461 1.64 7.373 2.457 5.187 7.781 7.236 11.468 7.236 0.82 0 3.004-0.137 4.916-1.229 2.048-1.092 3.14-2.457 4.232-4.369 0.547-0.955 0.819-1.228 0.956-1.228 0.409 0 0.547 0.956 0.409 1.501-0.136 1.093-1.229 3.551-1.775 4.507-0.137 0.409-0.956 0.955-1.365 1.228-0.683 0.273-4.369 1.229-8.192 1.229-6.417 0-11.060-3.141-12.835-5.325-1.775-2.048-3.823-5.188-3.823-10.376 0-5.189 3.004-9.285 4.915-10.787 3.824-3.14 8.056-4.096 12.152-4.096 1.501 0.136 3.549 0.409 5.325 0.819zM47.104 1.596c0.273 0.136 0.547 0.819 0.547 0.819 0.136 0.82 0.409 3.413 0.409 3.687 0 0.819 0 1.229-0.273 1.229-0.409 0-0.956-0.273-1.093-0.956-0.545-1.639-1.773-3.004-2.184-3.277-0.819-0.683-1.911-1.092-3.14-1.092-3.004 0-5.187 2.32-5.187 5.325 0 3.14 2.32 4.641 6.28 7.236 3.413 2.32 6.28 4.641 6.28 8.737 0 2.321-1.229 4.779-3.687 6.417-1.501 0.956-4.096 1.639-6.144 1.639-1.501 0-4.507-0.547-5.871-1.229-0.409-0.272-1.093-1.228-1.093-1.501-0.272-1.501-0.681-3.549-0.681-4.232 0-0.137 0.409-0.82 0.683-0.82 0.409 0 1.092 1.229 1.639 2.595 1.228 2.457 4.096 3.549 5.871 3.549 3.14 0 5.461-2.184 5.461-5.461 0-1.911-0.956-3.96-5.599-6.963-3.823-2.457-6.553-5.052-6.553-8.875 0-2.185 0.956-4.096 2.457-5.461 1.365-1.229 3.551-2.185 6.691-2.185 2.048 0 4.507 0.683 5.188 0.82zM56.799 5.965c-0.137-2.048-0.137-2.731-2.595-3.141-0.956-0.136-1.229-0.547-1.229-0.819 0-0.409 0.547-0.547 1.093-0.547 1.228 0 3.413 0.137 4.915 0.137 2.184 0 3.276-0.137 4.779-0.137 0.683 0 1.093 0.137 1.093 0.547s-0.411 0.683-1.229 0.819c-2.595 0.547-2.595 1.64-2.732 2.867-0.136 1.367-0.136 4.371-0.136 13.245 0 2.457 0 5.324 0.136 6.689 0.137 2.457 0.411 3.277 3.277 3.823 0.819 0.137 1.229 0.411 1.229 0.82s-0.683 0.547-1.229 0.547c-2.32 0-5.461-0.273-6.689-0.273-1.365 0-1.776 0.136-3.413 0.136-0.82 0-1.229-0.273-1.229-0.683 0-0.273 0.409-0.547 1.365-0.819 2.32-0.547 2.457-1.229 2.595-3.277 0.136-1.639 0.272-6.28 0.272-10.104-0.136-2.731-0.136-8.328-0.272-9.829zM84.515 1.596c0.272 0.136 0.547 0.819 0.547 0.819 0.136 0.82 0.409 3.413 0.409 3.687 0 0.819 0 1.229-0.273 1.229-0.411 0-0.956-0.273-1.093-0.956-0.547-1.639-1.773-3.004-2.184-3.277-0.819-0.683-1.911-1.092-3.14-1.092-3.004 0-5.188 2.32-5.188 5.325 0 3.14 2.32 4.641 6.28 7.236 3.413 2.32 6.28 4.641 6.28 8.737 0 2.321-1.228 4.779-3.685 6.417-1.503 0.956-4.096 1.639-6.144 1.639-1.503 0-4.507-0.547-5.871-1.229-0.411-0.272-1.093-1.228-1.093-1.501-0.272-1.501-0.683-3.549-0.683-4.232 0-0.137 0.411-0.82 0.683-0.82 0.411 0 1.093 1.229 1.64 2.595 1.227 2.457 4.095 3.549 5.869 3.549 3.14 0 5.461-2.184 5.461-5.461 0-1.911-0.955-3.96-5.597-6.963-3.823-2.457-6.553-5.052-6.553-8.875 0-2.185 0.955-4.096 2.457-5.461 1.364-1.229 3.549-2.185 6.691-2.185 2.048 0 4.505 0.683 5.187 0.82z"></path>
</symbol>
<symbol id="Icon-info-alt" viewBox="0 0 44 44">
<title>Icon-info-alt</title>
<path fill="#FFC72C" d="M20.132 19.811h5.913a.934.934 0 0 1 .389.046.975.975 0 0 1 .341.202c.1.09.182.202.242.327.059.125.094.261.103.401.096.51 0 .993-.097 1.477-.023.118-.047.236-.068.355-.387 2.203-.768 4.406-1.144 6.607-.04.238-.083.476-.126.713-.102.57-.204 1.141-.283 1.716-.036.33-.026.663.03.99.01.144.05.284.118.41a.982.982 0 0 0 .269.32.886.886 0 0 0 .774.16c.331-.08.654-.197.962-.35a3.46 3.46 0 0 0 .327-.182c.146-.09.292-.178.448-.232a.563.563 0 0 1 .518.06.884.884 0 0 1 .139.646c-.082.258-.224.491-.413.676a5.523 5.523 0 0 1-1.824 1.363 5.227 5.227 0 0 1-2.182.483c-.708.009-1.416-.04-2.117-.144-1.184-.21-2.675-1.807-2.414-3.509.086-.563.168-1.126.25-1.69.1-.701.202-1.403.314-2.103.106-.674.22-1.345.332-2.017.202-1.198.403-2.395.568-3.598.138-1.004-.23-1.432-1.148-1.477a2.854 2.854 0 0 1-1.005-.288.605.605 0 0 1-.29-.298.66.66 0 0 1-.04-.425.67.67 0 0 1 .16-.352.605.605 0 0 1 .321-.192c.207-.06.42-.092.633-.095zM23.174 12.466a2.856 2.856 0 0 1 1.69-.463v.007c.784.03 1.524.387 2.06.995.537.608.825 1.417.803 2.251a3.325 3.325 0 0 1-.546 1.765 3.03 3.03 0 0 1-1.378 1.141 2.824 2.824 0 0 1-1.742.13 2.958 2.958 0 0 1-1.513-.928 3.27 3.27 0 0 1-.77-1.668 3.371 3.371 0 0 1 .235-1.841 3.13 3.13 0 0 1 1.16-1.389z"/><path fill="#FFC72C" fill-rule="evenodd" clip-rule="evenodd" d="M24 4C12.954 4 4 12.954 4 24s8.954 20 20 20 20-8.954 20-20S35.046 4 24 4zM8 24c0-8.837 7.163-16 16-16s16 7.163 16 16-7.163 16-16 16S8 32.837 8 24z"/>
</symbol>
</defs>
</svg>
