<svg width="687" height="143" fill="none" xmlns="http://www.w3.org/2000/svg"><path d="M3.12 12h2.184V4.148h2.821V2.38H.286v1.768H3.12V12zm10.91.13c2.847 0 4.706-1.976 4.706-4.927 0-2.951-1.859-4.953-4.706-4.953-2.834 0-4.693 2.002-4.693 4.953 0 2.951 1.86 4.927 4.693 4.927zm.013-1.794c-1.482 0-2.496-1.235-2.496-3.146 0-1.898 1.014-3.146 2.496-3.146 1.495 0 2.483 1.248 2.483 3.146 0 1.911-.988 3.146-2.483 3.146zM21.136 12h2.184V8.763h1.417c2.938 0 4.004-1.3 4.004-3.302 0-1.781-1.261-3.081-3.224-3.081h-4.381V12zm2.184-4.979V4.148h1.859c.819 0 1.352.637 1.352 1.443 0 .793-.442 1.43-1.456 1.43H23.32zM37.433 12h2.184V4.148h2.821V2.38H34.6v1.768h2.834V12zm5.342 0h2.353l.624-1.794h3.458L49.847 12H52.2l-3.601-9.62h-2.223L42.775 12zm3.549-3.549 1.144-3.38 1.17 3.38h-2.314zm11.9-.013h1.755v1.014c-.234.533-1 .91-1.937.91-1.586 0-2.47-1.157-2.47-3.289 0-1.898.95-3.029 2.457-3.029 1.014 0 1.703.442 2.236 1.352l1.703-1.092c-.702-1.222-1.91-2.054-3.887-2.054-3.016 0-4.719 1.911-4.719 4.992 0 3.003 1.508 4.888 4.59 4.888 2.248 0 3.561-1.079 4.16-2.34V6.735h-3.888v1.703zm5.963.351c.143 2.301 1.456 3.341 4.147 3.341 2.21 0 3.588-1.144 3.588-2.886 0-3.666-5.304-2.392-5.304-4.238 0-.533.351-1.001 1.274-1.001.884 0 1.625.468 1.73 1.469h2.118c-.182-1.963-1.339-3.224-3.926-3.224-2.145 0-3.38 1.248-3.38 2.99 0 3.432 5.291 2.197 5.291 4.16 0 .533-.507.975-1.482.975-1 0-1.82-.468-1.95-1.586h-2.106zM.336 34h1.722l.938-2.478h4.256L8.204 34H9.94L5.894 23.64H4.382L.336 34zm3.15-3.836 1.638-4.326 1.638 4.326H3.486zm8 3.836h1.497v-4.284c0-1.26.77-2.058 1.974-2.058 1.064 0 1.456.63 1.456 1.848V34h1.498v-4.9c0-1.736-.658-2.73-2.45-2.73-1.246 0-1.946.504-2.45 1.316h-.028V26.51h-1.498V34zm8.846-2.24c0 1.68.854 2.38 2.296 2.38.392 0 .7-.056.994-.112v-1.33c-.266.042-.504.07-.728.07-.7 0-1.064-.336-1.064-1.092v-3.934h1.75V26.51h-1.75v-1.932h-1.498v1.932h-1.05v1.232h1.05v4.018zm5.65-6.566c.545 0 .965-.406.965-.952 0-.56-.42-.966-.966-.966-.574 0-.952.406-.952.966 0 .546.378.952.952.952zM25.238 34h1.498v-7.49H25.24V34zm8.754-2.758c-.098 1.106-.728 1.666-1.792 1.666-1.288 0-2.002-.896-2.002-2.66 0-1.778.714-2.646 2.002-2.646 1.022 0 1.694.616 1.792 1.694h1.484c-.098-1.876-1.302-2.926-3.262-2.926-2.296 0-3.528 1.582-3.528 3.892 0 2.296 1.148 3.878 3.542 3.878 1.96 0 3.15-1.022 3.248-2.898h-1.484zm4.32-6.048c.546 0 .966-.406.966-.952 0-.56-.42-.966-.966-.966-.574 0-.952.406-.952.966 0 .546.378.952.952.952zM37.571 34h1.498v-7.49h-1.498V34zm3.91 2.73h1.498v-3.934h.028c.49.812 1.204 1.344 2.394 1.344 2.044 0 3.206-1.582 3.206-3.892 0-2.24-1.078-3.878-3.192-3.878-1.232 0-1.918.532-2.408 1.302h-.028V26.51h-1.498v10.22zm3.514-3.738c-1.4 0-2.03-.994-2.03-2.716 0-1.722.63-2.758 2.016-2.758 1.344 0 2.1 1.022 2.1 2.73 0 1.764-.812 2.744-2.086 2.744zM54.927 34h1.498v-4.634c0-2.002-.966-2.996-3.024-2.996-2.072 0-2.94.966-3.108 2.59h1.442c.098-.98.672-1.4 1.652-1.4 1.022 0 1.54.546 1.54 1.33 0 .532-.154.616-1.274.798-1.54.266-3.724.308-3.724 2.464 0 1.092.77 1.988 2.366 1.988 1.246 0 2.1-.49 2.604-1.19h.028V34zm.014-2.996c0 1.218-.91 1.988-2.184 1.988-.77 0-1.33-.42-1.33-1.078 0-1.288 1.974-1.162 3.514-1.568v.658zm3.74.756c0 1.68.855 2.38 2.297 2.38.392 0 .7-.056.993-.112v-1.33c-.265.042-.503.07-.727.07-.7 0-1.065-.336-1.065-1.092v-3.934h1.75V26.51h-1.75v-1.932h-1.498v1.932h-1.05v1.232h1.05v4.018zm5.65-6.566c.546 0 .966-.406.966-.952 0-.56-.42-.966-.966-.966-.574 0-.952.406-.952.966 0 .546.378.952.952.952zM63.589 34h1.498v-7.49h-1.498V34zm3.91 0h1.498v-4.284c0-1.26.77-2.058 1.974-2.058 1.064 0 1.456.63 1.456 1.848V34h1.498v-4.9c0-1.736-.658-2.73-2.45-2.73-1.246 0-1.946.504-2.45 1.316h-.028V26.51h-1.498V34zm12.382-7.49a4.004 4.004 0 0 0-1.022-.14c-1.778 0-2.912 1.106-2.912 2.744 0 .826.294 1.512.798 1.988-.672.336-1.092.84-1.092 1.47 0 .546.308.868.77 1.078-.644.378-.98.84-.98 1.512 0 .966.854 1.708 3.514 1.708 2.996 0 3.794-1.022 3.794-2.156 0-2.926-5.726-1.232-5.726-2.52 0-.224.182-.42.448-.644.392.196.868.308 1.4.308 1.792 0 2.898-1.12 2.898-2.73 0-.602-.168-1.036-.462-1.428h1.414v-1.19h-2.842zm-1.022 4.298c-.938 0-1.526-.602-1.526-1.694s.588-1.694 1.526-1.694c.952 0 1.554.602 1.554 1.694s-.602 1.694-1.554 1.694zm2.45 4.088c0 .602-.616.966-2.198.966-1.792 0-2.394-.378-2.394-.994 0-.252.098-.546.602-.952 1.652.252 3.99-.056 3.99.98zm14.842-3.584c-.574.91-1.526 1.442-2.674 1.442-1.946 0-3.332-1.554-3.332-3.962 0-2.352 1.204-3.906 3.178-3.906 1.204 0 2.17.546 2.716 1.652l1.4-.728c-.812-1.526-2.212-2.31-4.102-2.31-3.01 0-4.844 2.156-4.844 5.306 0 3.22 1.89 5.334 4.97 5.334 1.848 0 3.192-.756 4.032-2.03l-1.344-.798zM99.655 34h1.498V23.64h-1.498V34zm4.652-8.806c.546 0 .966-.406.966-.952 0-.56-.42-.966-.966-.966-.574 0-.952.406-.952.966 0 .546.378.952.952.952zM103.565 34h1.498v-7.49h-1.498V34zm3.91 0h1.498v-4.284c0-1.274.644-2.058 1.736-2.058.966 0 1.288.616 1.288 1.848V34h1.498v-4.396c0-1.302.7-1.946 1.708-1.946.896 0 1.316.574 1.316 1.848V34h1.484v-4.9c0-1.778-.714-2.73-2.352-2.73-1.106 0-1.834.504-2.324 1.386h-.014c-.308-.896-.98-1.386-2.128-1.386-1.12 0-1.736.518-2.184 1.316h-.028V26.51h-1.498V34zm17.274 0h1.498v-4.634c0-2.002-.966-2.996-3.024-2.996-2.072 0-2.94.966-3.108 2.59h1.442c.098-.98.672-1.4 1.652-1.4 1.022 0 1.54.546 1.54 1.33 0 .532-.154.616-1.274.798-1.54.266-3.724.308-3.724 2.464 0 1.092.77 1.988 2.366 1.988 1.246 0 2.1-.49 2.604-1.19h.028V34zm.014-2.996c0 1.218-.91 1.988-2.184 1.988-.77 0-1.33-.42-1.33-1.078 0-1.288 1.974-1.162 3.514-1.568v.658zm3.741.756c0 1.68.854 2.38 2.296 2.38.392 0 .7-.056.994-.112v-1.33c-.266.042-.504.07-.728.07-.7 0-1.064-.336-1.064-1.092v-3.934h1.75V26.51h-1.75v-1.932h-1.498v1.932h-1.05v1.232h1.05v4.018zm9.628-.322c-.112.966-.812 1.498-1.848 1.498-1.176 0-1.89-.826-1.932-2.45h5.278v-.238c0-2.394-.938-3.878-3.29-3.878-2.338 0-3.5 1.582-3.5 3.892 0 2.324 1.064 3.878 3.514 3.878 1.974 0 3.136-1.134 3.262-2.702h-1.484zm-3.752-1.932c.154-1.316.84-1.96 1.96-1.96 1.148 0 1.764.826 1.806 1.96h-3.766zM1.288 48h1.624V37.64H1.288V48zm4.113 0H6.9v-4.284c0-1.274.644-2.058 1.736-2.058.966 0 1.288.616 1.288 1.848V48h1.498v-4.396c0-1.302.7-1.946 1.708-1.946.896 0 1.316.574 1.316 1.848V48h1.484v-4.9c0-1.778-.714-2.73-2.352-2.73-1.106 0-1.834.504-2.324 1.386h-.014c-.308-.896-.98-1.386-2.128-1.386-1.12 0-1.736.518-2.184 1.316H6.9V40.51H5.401V48zm12.92 2.73h1.498v-3.934h.028c.49.812 1.204 1.344 2.394 1.344 2.044 0 3.206-1.582 3.206-3.892 0-2.24-1.078-3.878-3.192-3.878-1.232 0-1.918.532-2.408 1.302h-.028V40.51h-1.498v10.22zm3.514-3.738c-1.4 0-2.03-.994-2.03-2.716 0-1.722.63-2.758 2.016-2.758 1.344 0 2.1 1.022 2.1 2.73 0 1.764-.812 2.744-2.086 2.744zM31.767 48h1.498v-4.634c0-2.002-.966-2.996-3.024-2.996-2.072 0-2.94.966-3.108 2.59h1.442c.098-.98.672-1.4 1.652-1.4 1.022 0 1.54.546 1.54 1.33 0 .532-.154.616-1.274.798-1.54.266-3.724.308-3.724 2.464 0 1.092.77 1.988 2.366 1.988 1.246 0 2.1-.49 2.604-1.19h.028V48zm.014-2.996c0 1.218-.91 1.988-2.184 1.988-.77 0-1.33-.42-1.33-1.078 0-1.288 1.974-1.162 3.514-1.568v.658zm8.515.238c-.098 1.106-.728 1.666-1.792 1.666-1.288 0-2.002-.896-2.002-2.66 0-1.778.714-2.646 2.002-2.646 1.022 0 1.694.616 1.792 1.694h1.484c-.098-1.876-1.302-2.926-3.262-2.926-2.296 0-3.528 1.582-3.528 3.892 0 2.296 1.148 3.878 3.542 3.878 1.96 0 3.15-1.022 3.248-2.898h-1.484zm3.62.518c0 1.68.854 2.38 2.296 2.38.392 0 .7-.056.994-.112v-1.33c-.266.042-.504.07-.728.07-.7 0-1.064-.336-1.064-1.092v-3.934h1.75V40.51h-1.75v-1.932h-1.498v1.932h-1.05v1.232h1.05v4.018zm4.485-.21c.084 1.806 1.246 2.59 3.22 2.59 1.932 0 2.926-.882 2.926-2.24 0-2.94-4.396-1.708-4.396-3.374 0-.504.308-1.008 1.288-1.008.882 0 1.442.42 1.498 1.386h1.456c-.07-1.652-1.134-2.534-2.954-2.534-1.876 0-2.8.98-2.8 2.254 0 2.94 4.41 1.61 4.41 3.374 0 .672-.504 1.008-1.4 1.008-.98 0-1.708-.364-1.792-1.456H48.4zM3.626 70H5.25v-9.002h3.276V59.64H.336v1.358h3.29V70zm9.695-2.562c-.112.966-.812 1.498-1.848 1.498-1.176 0-1.89-.826-1.932-2.45h5.278v-.238c0-2.394-.938-3.878-3.29-3.878-2.338 0-3.5 1.582-3.5 3.892 0 2.324 1.064 3.878 3.514 3.878 1.974 0 3.136-1.134 3.262-2.702h-1.484zM9.57 65.506c.154-1.316.84-1.96 1.96-1.96 1.148 0 1.764.826 1.806 1.96H9.57zm12.202 1.736c-.098 1.106-.728 1.666-1.792 1.666-1.288 0-2.002-.896-2.002-2.66 0-1.778.714-2.646 2.002-2.646 1.022 0 1.694.616 1.792 1.694h1.484c-.098-1.876-1.302-2.926-3.262-2.926-2.296 0-3.528 1.582-3.528 3.892 0 2.296 1.148 3.878 3.542 3.878 1.96 0 3.15-1.022 3.248-2.898H21.77zM25.143 70h1.498v-4.284c0-1.26.77-2.058 1.975-2.058 1.064 0 1.456.63 1.456 1.848V70h1.498v-4.9c0-1.736-.659-2.73-2.45-2.73-1.247 0-1.947.504-2.45 1.316h-.029V59.64h-1.497V70zm8.805 0h1.498v-4.284c0-1.26.77-2.058 1.974-2.058 1.064 0 1.456.63 1.456 1.848V70h1.498v-4.9c0-1.736-.658-2.73-2.45-2.73-1.246 0-1.946.504-2.45 1.316h-.028V62.51h-1.498V70zm12.122.14c2.282 0 3.752-1.554 3.752-3.878s-1.47-3.892-3.752-3.892-3.738 1.568-3.738 3.892 1.456 3.878 3.738 3.878zm0-1.162c-1.372 0-2.226-1.064-2.226-2.716 0-1.666.854-2.73 2.226-2.73 1.386 0 2.226 1.064 2.226 2.73 0 1.652-.84 2.716-2.226 2.716zM51.749 70h1.498V59.64h-1.498V70zm7.186.14c2.282 0 3.752-1.554 3.752-3.878s-1.47-3.892-3.752-3.892-3.738 1.568-3.738 3.892 1.456 3.878 3.738 3.878zm0-1.162c-1.372 0-2.226-1.064-2.226-2.716 0-1.666.854-2.73 2.226-2.73 1.386 0 2.226 1.064 2.226 2.73 0 1.652-.84 2.716-2.226 2.716zm9.298-6.468a4.004 4.004 0 0 0-1.022-.14c-1.778 0-2.912 1.106-2.912 2.744 0 .826.294 1.512.798 1.988-.672.336-1.092.84-1.092 1.47 0 .546.308.868.77 1.078-.644.378-.98.84-.98 1.512 0 .966.854 1.708 3.514 1.708 2.996 0 3.794-1.022 3.794-2.156 0-2.926-5.726-1.232-5.726-2.52 0-.224.182-.42.448-.644.392.196.868.308 1.4.308 1.792 0 2.898-1.12 2.898-2.73 0-.602-.168-1.036-.462-1.428h1.414v-1.19h-2.842zm-1.022 4.298c-.938 0-1.526-.602-1.526-1.694s.588-1.694 1.526-1.694c.952 0 1.554.602 1.554 1.694s-.602 1.694-1.554 1.694zm2.45 4.088c0 .602-.616.966-2.198.966-1.792 0-2.394-.378-2.394-.994 0-.252.098-.546.602-.952 1.652.252 3.99-.056 3.99.98zm3.972 1.834h1.596l3.71-10.22H77.37l-1.946 5.782-2.1-5.782h-1.61L74.669 70l-1.036 2.73zm14.177-2.59c2.282 0 3.752-1.554 3.752-3.878s-1.47-3.892-3.752-3.892-3.738 1.568-3.738 3.892 1.456 3.878 3.738 3.878zm0-1.162c-1.372 0-2.226-1.064-2.226-2.716 0-1.666.854-2.73 2.226-2.73 1.386 0 2.226 1.064 2.226 2.73 0 1.652-.84 2.716-2.226 2.716zM93.448 70h1.498v-4.102c0-1.274.756-2.03 1.904-2.03.238 0 .476.042.644.098v-1.554a2.28 2.28 0 0 0-.434-.042c-.966 0-1.61.49-2.086 1.302h-.028V62.51h-1.498V70zm9.454-3.192c.14 2.282 1.526 3.332 4.06 3.332 2.254 0 3.64-1.134 3.64-2.996 0-3.962-5.81-2.198-5.81-4.746 0-.784.49-1.526 1.862-1.526 1.302 0 2.086.644 2.226 1.904h1.596c-.196-2.058-1.498-3.276-3.864-3.276-2.17 0-3.43 1.232-3.43 3.052 0 3.794 5.796 2.016 5.796 4.732 0 .952-.756 1.484-2.03 1.484-1.274 0-2.31-.504-2.464-1.96h-1.582zm10.666 5.922h1.596l3.71-10.22h-1.568l-1.946 5.782-2.1-5.782h-1.61l2.954 7.49-1.036 2.73zm6.118-5.18c.084 1.806 1.246 2.59 3.22 2.59 1.932 0 2.926-.882 2.926-2.24 0-2.94-4.396-1.708-4.396-3.374 0-.504.308-1.008 1.288-1.008.882 0 1.442.42 1.498 1.386h1.456c-.07-1.652-1.134-2.534-2.954-2.534-1.876 0-2.8.98-2.8 2.254 0 2.94 4.41 1.61 4.41 3.374 0 .672-.504 1.008-1.4 1.008-.98 0-1.708-.364-1.792-1.456h-1.456zm8.203.21c0 1.68.854 2.38 2.296 2.38.392 0 .7-.056.994-.112v-1.33c-.266.042-.504.07-.728.07-.7 0-1.064-.336-1.064-1.092v-3.934h1.75V62.51h-1.75v-1.932h-1.498v1.932h-1.05v1.232h1.05v4.018zm9.627-.322c-.112.966-.812 1.498-1.848 1.498-1.176 0-1.89-.826-1.932-2.45h5.278v-.238c0-2.394-.938-3.878-3.29-3.878-2.338 0-3.5 1.582-3.5 3.892 0 2.324 1.064 3.878 3.514 3.878 1.974 0 3.136-1.134 3.262-2.702h-1.484zm-3.752-1.932c.154-1.316.84-1.96 1.96-1.96 1.148 0 1.764.826 1.806 1.96h-3.766zM141.122 70h1.498v-4.284c0-1.274.644-2.058 1.736-2.058.966 0 1.288.616 1.288 1.848V70h1.498v-4.396c0-1.302.7-1.946 1.708-1.946.896 0 1.316.574 1.316 1.848V70h1.484v-4.9c0-1.778-.714-2.73-2.352-2.73-1.106 0-1.834.504-2.324 1.386h-.014c-.308-.896-.98-1.386-2.128-1.386-1.12 0-1.736.518-2.184 1.316h-.028V62.51h-1.498V70zM.882 80.808c.14 2.282 1.526 3.332 4.06 3.332 2.254 0 3.64-1.134 3.64-2.996 0-3.962-5.81-2.198-5.81-4.746 0-.784.49-1.526 1.862-1.526 1.302 0 2.086.644 2.226 1.904h1.596C8.26 74.718 6.958 73.5 4.592 73.5c-2.17 0-3.43 1.232-3.43 3.052 0 3.794 5.796 2.016 5.796 4.732 0 .952-.756 1.484-2.03 1.484-1.274 0-2.31-.504-2.464-1.96H.882zm9.757.952c0 1.68.854 2.38 2.296 2.38.392 0 .7-.056.994-.112v-1.33c-.266.042-.504.07-.728.07-.7 0-1.064-.336-1.064-1.092v-3.934h1.75V76.51h-1.75v-1.932h-1.498v1.932h-1.05v1.232h1.05v4.018zM20.023 84h1.498v-4.634c0-2.002-.966-2.996-3.024-2.996-2.072 0-2.94.966-3.108 2.59h1.442c.098-.98.672-1.4 1.652-1.4 1.022 0 1.54.546 1.54 1.33 0 .532-.154.616-1.274.798-1.54.266-3.724.308-3.724 2.464 0 1.092.77 1.988 2.366 1.988 1.246 0 2.1-.49 2.604-1.19h.028V84zm.014-2.996c0 1.218-.91 1.988-2.184 1.988-.77 0-1.33-.42-1.33-1.078 0-1.288 1.974-1.162 3.514-1.568v.658zM23.817 84h1.498v-4.284c0-1.26.77-2.058 1.974-2.058 1.064 0 1.456.63 1.456 1.848V84h1.498v-4.9c0-1.736-.658-2.73-2.45-2.73-1.246 0-1.946.504-2.45 1.316h-.028V76.51h-1.498V84zm13.998 0h1.498V73.64h-1.498v4.032h-.028c-.49-.784-1.19-1.302-2.394-1.302-2.058 0-3.192 1.596-3.192 3.906 0 2.24 1.078 3.864 3.178 3.864 1.246 0 1.932-.546 2.408-1.344h.028V84zm-2.002-1.008c-1.33 0-2.1-1.008-2.1-2.716 0-1.764.812-2.758 2.086-2.758 1.4 0 2.03 1.008 2.03 2.716 0 1.736-.63 2.758-2.016 2.758zM46.081 84h1.498v-4.634c0-2.002-.966-2.996-3.024-2.996-2.072 0-2.94.966-3.108 2.59h1.442c.098-.98.672-1.4 1.652-1.4 1.022 0 1.54.546 1.54 1.33 0 .532-.154.616-1.274.798-1.54.266-3.724.308-3.724 2.464 0 1.092.77 1.988 2.366 1.988 1.246 0 2.1-.49 2.604-1.19h.028V84zm.014-2.996c0 1.218-.91 1.988-2.184 1.988-.77 0-1.33-.42-1.33-1.078 0-1.288 1.974-1.162 3.514-1.568v.658zM49.875 84h1.499v-4.102c0-1.274.756-2.03 1.904-2.03.238 0 .476.042.644.098v-1.554a2.28 2.28 0 0 0-.434-.042c-.966 0-1.61.49-2.086 1.302h-.028V76.51h-1.498V84zm10.54 0h1.498V73.64h-1.498v4.032h-.028c-.49-.784-1.19-1.302-2.394-1.302-2.058 0-3.192 1.596-3.192 3.906 0 2.24 1.078 3.864 3.178 3.864 1.246 0 1.932-.546 2.408-1.344h.028V84zm-2.002-1.008c-1.33 0-2.1-1.008-2.1-2.716 0-1.764.812-2.758 2.086-2.758 1.4 0 2.03 1.008 2.03 2.716 0 1.736-.63 2.758-2.016 2.758zm5.396-1.442c.084 1.806 1.246 2.59 3.22 2.59 1.932 0 2.926-.882 2.926-2.24 0-2.94-4.396-1.708-4.396-3.374 0-.504.308-1.008 1.288-1.008.882 0 1.442.42 1.498 1.386h1.456c-.07-1.652-1.134-2.534-2.954-2.534-1.876 0-2.8.98-2.8 2.254 0 2.94 4.41 1.61 4.41 3.374 0 .672-.504 1.008-1.4 1.008-.98 0-1.708-.364-1.792-1.456h-1.456zM1.274 113h6.86v-1.358H2.898v-3.318H7.77v-1.344H2.898v-2.982h5.096v-1.358h-6.72V113zm9.117 0h1.498v-4.284c0-1.26.77-2.058 1.975-2.058 1.063 0 1.455.63 1.455 1.848V113h1.498v-4.9c0-1.736-.657-2.73-2.45-2.73-1.246 0-1.946.504-2.45 1.316h-.027v-1.176h-1.498V113zm13.676-2.562c-.112.966-.812 1.498-1.848 1.498-1.176 0-1.89-.826-1.932-2.45h5.278v-.238c0-2.394-.938-3.878-3.29-3.878-2.338 0-3.5 1.582-3.5 3.892 0 2.324 1.064 3.878 3.514 3.878 1.974 0 3.136-1.134 3.262-2.702h-1.484zm-3.752-1.932c.154-1.316.84-1.96 1.96-1.96 1.148 0 1.764.826 1.806 1.96h-3.766zM27.673 113h1.498v-4.102c0-1.274.756-2.03 1.904-2.03.238 0 .476.042.644.098v-1.554a2.28 2.28 0 0 0-.434-.042c-.966 0-1.61.49-2.086 1.302h-.028v-1.162h-1.498V113zm9.155-7.49a4.004 4.004 0 0 0-1.022-.14c-1.778 0-2.912 1.106-2.912 2.744 0 .826.294 1.512.798 1.988-.672.336-1.092.84-1.092 1.47 0 .546.308.868.77 1.078-.644.378-.98.84-.98 1.512 0 .966.854 1.708 3.514 1.708 2.996 0 3.794-1.022 3.794-2.156 0-2.926-5.726-1.232-5.726-2.52 0-.224.182-.42.448-.644.392.196.868.308 1.4.308 1.792 0 2.898-1.12 2.898-2.73 0-.602-.168-1.036-.462-1.428h1.414v-1.19h-2.842zm-1.022 4.298c-.938 0-1.526-.602-1.526-1.694s.588-1.694 1.526-1.694c.952 0 1.554.602 1.554 1.694s-.602 1.694-1.554 1.694zm2.45 4.088c0 .602-.616.966-2.198.966-1.792 0-2.394-.378-2.394-.994 0-.252.098-.546.602-.952 1.652.252 3.99-.056 3.99.98zm3.972 1.834h1.596l3.71-10.22h-1.568l-1.946 5.782-2.1-5.782h-1.61l2.954 7.49-1.036 2.73zm10.58-5.922c.14 2.282 1.526 3.332 4.06 3.332 2.254 0 3.64-1.134 3.64-2.996 0-3.962-5.81-2.198-5.81-4.746 0-.784.49-1.526 1.862-1.526 1.302 0 2.086.644 2.226 1.904h1.596c-.196-2.058-1.498-3.276-3.864-3.276-2.17 0-3.43 1.232-3.43 3.052 0 3.794 5.796 2.016 5.796 4.732 0 .952-.756 1.484-2.03 1.484-1.274 0-2.31-.504-2.464-1.96h-1.582zm9.756.952c0 1.68.854 2.38 2.296 2.38.392 0 .7-.056.994-.112v-1.33c-.266.042-.504.07-.728.07-.7 0-1.064-.336-1.064-1.092v-3.934h1.75v-1.232h-1.75v-1.932h-1.498v1.932h-1.05v1.232h1.05v4.018zm8.074 2.38c2.282 0 3.752-1.554 3.752-3.878s-1.47-3.892-3.752-3.892-3.738 1.568-3.738 3.892 1.456 3.878 3.738 3.878zm0-1.162c-1.372 0-2.226-1.064-2.226-2.716 0-1.666.854-2.73 2.226-2.73 1.386 0 2.226 1.064 2.226 2.73 0 1.652-.84 2.716-2.226 2.716zM76.276 113h1.498v-4.102c0-1.274.756-2.03 1.904-2.03.238 0 .476.042.644.098v-1.554a2.28 2.28 0 0 0-.434-.042c-.966 0-1.61.49-2.086 1.302h-.028v-1.162h-1.498V113zm9.7 0h1.498v-4.634c0-2.002-.966-2.996-3.024-2.996-2.072 0-2.94.966-3.108 2.59h1.442c.098-.98.672-1.4 1.652-1.4 1.022 0 1.54.546 1.54 1.33 0 .532-.154.616-1.274.798-1.54.266-3.724.308-3.724 2.464 0 1.092.77 1.988 2.366 1.988 1.246 0 2.1-.49 2.604-1.19h.028V113zm.014-2.996c0 1.218-.91 1.988-2.184 1.988-.77 0-1.33-.42-1.33-1.078 0-1.288 1.974-1.162 3.514-1.568v.658zm7.672-4.494a4.004 4.004 0 0 0-1.022-.14c-1.778 0-2.912 1.106-2.912 2.744 0 .826.294 1.512.798 1.988-.672.336-1.092.84-1.092 1.47 0 .546.308.868.77 1.078-.644.378-.98.84-.98 1.512 0 .966.854 1.708 3.514 1.708 2.996 0 3.794-1.022 3.794-2.156 0-2.926-5.726-1.232-5.726-2.52 0-.224.182-.42.448-.644.392.196.868.308 1.4.308 1.792 0 2.898-1.12 2.898-2.73 0-.602-.168-1.036-.462-1.428h1.414v-1.19h-2.842zm-1.022 4.298c-.938 0-1.526-.602-1.526-1.694s.588-1.694 1.526-1.694c.952 0 1.554.602 1.554 1.694s-.602 1.694-1.554 1.694zm2.45 4.088c0 .602-.616.966-2.198.966-1.792 0-2.394-.378-2.394-.994 0-.252.098-.546.602-.952 1.652.252 3.99-.056 3.99.98zm7.604-3.458c-.112.966-.812 1.498-1.848 1.498-1.176 0-1.89-.826-1.932-2.45h5.278v-.238c0-2.394-.938-3.878-3.29-3.878-2.338 0-3.5 1.582-3.5 3.892 0 2.324 1.064 3.878 3.514 3.878 1.974 0 3.136-1.134 3.262-2.702h-1.484zm-3.752-1.932c.154-1.316.84-1.96 1.96-1.96 1.148 0 1.764.826 1.806 1.96h-3.766z" fill="#171C26"/><path fill="#B1B4B9" d="M224 23h1v93h-1z"/><path fill="#F0F0F0" d="M225 23h454v23H225z"/><path fill="#171C26" d="M225 23h123v23H225zM354.302 41.156h5.894v-1.288h-2.016v-9.072h-1.218l-3.29 2.184.686 1.092 2.254-1.442v7.238h-2.31v1.288zm7.155-3.22c.126 2.366 1.54 3.36 3.682 3.36 2.198 0 3.64-1.288 3.64-3.388 0-2.1-1.372-3.318-3.472-3.318-.476 0-1.022.112-1.456.266l.63-2.772h4.088v-1.288h-5.18l-1.218 5.684.322.042a4.925 4.925 0 0 1 2.506-.728c1.442 0 2.226.854 2.226 2.142 0 1.33-.826 2.1-2.058 2.1-1.078 0-2.058-.518-2.198-2.1h-1.512z"/><path fill="#F0F0F0" d="M225 58h454v23H225z"/><path fill="#171C26" d="M225 58h114v23H225zM345.302 76.156h5.894v-1.288h-2.016v-9.072h-1.218l-3.29 2.184.686 1.092 2.254-1.442v7.238h-2.31v1.288zm7.141-2.352h4.452v2.352h1.554v-2.352h1.498v-1.302h-1.498v-6.706h-1.764l-4.242 6.58v1.428zm1.302-1.302 3.15-4.844v4.844h-3.15z"/><path fill="#F0F0F0" d="M225 93h454v23H225z"/><path fill="#171C26" d="M225 93h104v23H225zM335.302 111.156h5.894v-1.288h-2.016v-9.072h-1.218l-3.29 2.184.686 1.092 2.254-1.442v7.238h-2.31v1.288zm7.211-3.304c.098 2.044 1.148 3.444 3.682 3.444 2.38 0 3.654-1.218 3.654-3.038 0-1.316-.658-2.268-1.806-2.73.812-.476 1.288-1.232 1.288-2.254 0-1.54-1.134-2.618-3.136-2.618-2.086 0-3.374 1.162-3.486 3.304h1.554c.098-1.302.742-2.044 1.834-2.044 1.078 0 1.666.714 1.666 1.61 0 .938-.63 1.666-1.68 1.666h-.994v1.232h1.386c1.12 0 1.82.728 1.82 1.834s-.714 1.778-1.988 1.778c-1.344 0-2.156-.728-2.282-2.184h-1.512z"/><path fill="#B1B4B9" d="M679 23h1v93h-1zM224 116h1v8h-1z"/><path d="M224.506 142.13c1.885 0 3.406-1.43 3.406-4.94 0-3.51-1.521-4.94-3.406-4.94-1.898 0-3.406 1.43-3.406 4.94 0 3.51 1.508 4.94 3.406 4.94zm0-1.183c-1.027 0-1.937-.806-1.937-3.757s.91-3.757 1.937-3.757c1.014 0 1.937.806 1.937 3.757s-.923 3.757-1.937 3.757z" fill="#7E8694"/><path fill="#B1B4B9" d="M679 116h1v8h-1z"/><path d="M672.245 139.01c.117 2.197 1.43 3.12 3.419 3.12 2.041 0 3.38-1.196 3.38-3.146s-1.274-3.081-3.224-3.081c-.442 0-.949.104-1.352.247l.585-2.574h3.796v-1.196h-4.81l-1.131 5.278.299.039a4.573 4.573 0 0 1 2.327-.676c1.339 0 2.067.793 2.067 1.989 0 1.235-.767 1.95-1.911 1.95-1.001 0-1.911-.481-2.041-1.95h-1.404zm7.554 0c.117 2.197 1.43 3.12 3.419 3.12 2.041 0 3.38-1.196 3.38-3.146s-1.274-3.081-3.224-3.081c-.442 0-.949.104-1.352.247l.585-2.574h3.796v-1.196h-4.81l-1.131 5.278.299.039a4.573 4.573 0 0 1 2.327-.676c1.339 0 2.067.793 2.067 1.989 0 1.235-.767 1.95-1.911 1.95-1.001 0-1.911-.481-2.041-1.95h-1.404z" fill="#7E8694"/></svg>